<?xml version="1.0" encoding="utf-8"?>
<!-- Generator: Adobe Illustrator 27.5.0, SVG Export Plug-In . SVG Version: 6.00 Build 0)  -->
<svg version="1.1" xmlns="http://www.w3.org/2000/svg" xmlns:xlink="http://www.w3.org/1999/xlink" x="0px" y="0px"
	 viewBox="0 0 500 500" style="enable-background:new 0 0 500 500;" xml:space="preserve">
<g id="Floor">
	<path style="fill:#F5F5F5;" d="M409.038,247.805c-88.41-51.043-231.282-51.043-319.117,0.001
		C2.081,298.854,2.546,381.611,90.956,432.655c88.415,51.046,231.288,51.046,319.128-0.002
		C497.919,381.609,497.454,298.852,409.038,247.805z"/>
</g>
<g id="Shadows_1_">
	<path style="fill:#E0E0E0;" d="M154.693,330.679c29.619-17.1,77.484-17.1,106.91,0.001c26.002,15.11,28.89,38.509,8.784,55.55
		c16.223-1.005,33.035,2.086,45.425,9.287c21.747,12.638,21.631,33.126-0.256,45.763c-21.889,12.638-57.26,12.638-79.007,0
		c-17.301-10.054-20.748-25.075-10.417-37.161c-24.933,3.606-52.373-0.228-71.79-11.512
		C124.916,375.505,125.072,347.78,154.693,330.679z"/>
	<path style="fill:#E0E0E0;" d="M88.516,373.215c-6.54-3.776-17.107-3.776-23.604,0c-6.497,3.776-6.463,9.897,0.077,13.673
		c6.54,3.776,17.108,3.776,23.605,0C95.09,383.112,95.055,376.99,88.516,373.215z"/>
</g>
<g id="Plant">
	<g>
		<g>
			<path style="fill:#FFFFFF;" d="M92.585,351.49l-15.833,0.461l-15.833-0.461c-0.682,10.692,1.406,21.589,4.284,26.912l0.011-0.002
				c0.515,1.168,1.551,2.276,3.134,3.189c4.672,2.697,12.221,2.697,16.863,0c1.609-0.935,2.644-2.073,3.132-3.272
				C91.199,372.966,93.264,362.129,92.585,351.49z"/>
			<g>
				<path style="fill:#EBEBEB;" d="M87.911,345.005c6.204,3.582,6.236,9.388,0.074,12.97c-6.163,3.582-16.188,3.582-22.392,0
					c-6.203-3.581-6.236-9.388-0.073-12.97C71.683,341.423,81.708,341.423,87.911,345.005z"/>
			</g>
			<g>
				<path style="fill:#E0E0E0;" d="M85.458,346.43c4.84,2.794,4.865,7.325,0.057,10.119c-4.808,2.794-12.629,2.794-17.469,0
					c-4.84-2.794-4.865-7.324-0.057-10.119C72.797,343.636,80.618,343.636,85.458,346.43z"/>
			</g>
			<g style="opacity:0.15;">
				<path d="M85.458,346.43c4.84,2.794,4.865,7.325,0.057,10.119c-4.808,2.794-12.629,2.794-17.469,0
					c-4.84-2.794-4.865-7.324-0.057-10.119C72.797,343.636,80.618,343.636,85.458,346.43z"/>
			</g>
		</g>
		<g>
			<path style="fill:#BA68C8;" d="M102.784,283.927c-35.681,11.683-36.004,35.553-27.96,52.552
				c2.029,3.441,8.168,5.289,13.512-15.852l-9.372,1.202l10.922-5.536l2.837-8.48l-9.106,0.676l11.559-4.861
				C99.433,290.745,102.784,283.927,102.784,283.927z"/>
			<path style="opacity:0.2;" d="M102.784,283.927c-35.681,11.683-36.004,35.553-27.96,52.552
				c2.029,3.441,8.168,5.289,13.512-15.852l-9.372,1.202l10.922-5.536l2.837-8.48l-9.106,0.676l11.559-4.861
				C99.433,290.745,102.784,283.927,102.784,283.927z"/>
			<path style="opacity:0.2;fill:#FFFFFF;" d="M102.784,283.927c-35.681,11.683-36.004,35.553-27.96,52.552
				c2.029,3.441,8.168,5.289,13.512-15.852l-9.372,1.202l10.922-5.536l2.837-8.48l-9.106,0.676l11.559-4.861
				C99.433,290.745,102.784,283.927,102.784,283.927z"/>
			<path style="fill:#FFFFFF;" d="M92.692,289.896c-18.816,14.281-20.515,30.654-15.199,47.746
				C75.612,322.592,73.58,307.374,92.692,289.896z"/>
		</g>
		<g>
			<path style="fill:#BA68C8;" d="M42.35,308.174c35.171,4.952,39.438,27.129,34.771,44.297c-1.317,3.542-6.728,6.283-15.217-12.518
				l8.928-0.438l-11.091-3.341l-4.051-7.426l8.593-0.883l-11.573-2.607C46.603,313.968,42.35,308.174,42.35,308.174z"/>
			<path style="opacity:0.2;fill:#FFFFFF;" d="M42.35,308.174c35.171,4.952,39.438,27.129,34.771,44.297
				c-1.317,3.542-6.728,6.283-15.217-12.518l8.928-0.438l-11.091-3.341l-4.051-7.426l8.593-0.883l-11.573-2.607
				C46.603,313.968,42.35,308.174,42.35,308.174z"/>
			<path style="opacity:0.1;" d="M42.35,308.174c35.171,4.952,39.438,27.129,34.771,44.297c-1.317,3.542-6.728,6.283-15.217-12.518
				l8.928-0.438l-11.091-3.341l-4.051-7.426l8.593-0.883l-11.573-2.607C46.603,313.968,42.35,308.174,42.35,308.174z"/>
			<path style="fill:#FFFFFF;" d="M52.74,312.057c19.896,10.174,24.199,25.14,22.088,41.942
				C74.079,339.669,73.443,325.159,52.74,312.057z"/>
		</g>
		<g>
			<path style="fill:#BA68C8;" d="M113.078,316.485c-32.254,0.527-38.582,20.038-36.297,36.034c0.791,3.34,5.361,6.416,15.116-9.58
				l-7.998-1.394l10.37-1.77l4.482-6.24l-7.646-1.758l10.722-1.055C108.595,321.231,113.078,316.485,113.078,316.485z"/>
			<path style="fill:#FFFFFF;" d="M103.278,318.822c-19.071,6.943-24.624,19.95-24.602,35.33
				C80.955,341.32,83.152,328.313,103.278,318.822z"/>
			<path style="opacity:0.2;fill:#FFFFFF;" d="M113.078,316.485c-32.254,0.527-38.582,20.038-36.297,36.034
				c0.791,3.34,5.361,6.416,15.116-9.58l-7.998-1.394l10.37-1.77l4.482-6.24l-7.646-1.758l10.722-1.055
				C108.595,321.231,113.078,316.485,113.078,316.485z"/>
		</g>
	</g>
</g>
<g id="Character">
	<g>
		<g>
			<g>
				<g>
					<path style="fill:#455A64;" d="M247.292,271.759c10.102,7.015,21.478,11.867,29.914,21.271
						c15.756,17.565,16.124,45.828,3.749,65.918c-12.375,20.091-35.39,32.162-58.824,34.925
						c-24.587,2.899-50.387-3.895-69.677-19.414c-19.29-15.518-31.562-39.765-31.553-64.522
						c0.009-24.757,12.69-49.409,33.427-62.933c18.919-12.338,46.103-15.858,65.085-1.74c9.597,7.138,15.995,17.672,25.567,24.83
						C245.742,270.664,246.513,271.218,247.292,271.759z"/>
					<path style="opacity:0.2;" d="M247.292,271.759c10.102,7.015,21.478,11.867,29.914,21.271
						c15.756,17.565,16.124,45.828,3.749,65.918c-12.375,20.091-35.39,32.162-58.824,34.925
						c-24.587,2.899-50.387-3.895-69.677-19.414c-19.29-15.518-31.562-39.765-31.553-64.522
						c0.009-24.757,12.69-49.409,33.427-62.933c18.919-12.338,46.103-15.858,65.085-1.74c9.597,7.138,15.995,17.672,25.567,24.83
						C245.742,270.664,246.513,271.218,247.292,271.759z"/>
					<path style="opacity:0.1;fill:#FFFFFF;" d="M247.292,271.759c10.102,7.015,21.478,11.867,29.914,21.271
						c15.756,17.565,16.124,45.828,3.749,65.918c-12.375,20.091-35.39,32.162-58.824,34.925
						c-24.587,2.899-50.387-3.895-69.677-19.414c-19.29-15.518-31.562-39.765-31.553-64.522
						c0.009-24.757,12.69-49.409,33.427-62.933c18.919-12.338,46.103-15.858,65.085-1.74c9.597,7.138,15.995,17.672,25.567,24.83
						C245.742,270.664,246.513,271.218,247.292,271.759z"/>
					<path style="opacity:0.1;" d="M243.178,374.677c-0.023-0.167-0.046-0.335-0.07-0.502c-1.606-11.254-10.38-20.009-21.545-22.151
						c-9.725-1.867-19.124-5.445-27.598-10.57c-6.031-3.647-11.729-8.117-18.495-10.094c-6.243-1.824-14.016-1.543-19.933,1.157
						c5.687-5.97,15.432-8.597,23.223-5.898c-5.392-8.252-10.136-17.143-11.994-26.824c-1.858-9.681-0.538-20.305,5.3-28.249
						c4.957-6.745,13.025-11.103,21.385-11.55c8.359-0.447,16.846,3.026,22.494,9.204c5.782,6.324,9.041,15.224,12.838,22.906
						c2.727,5.518,5.548,11.163,10.043,15.368c6.783,6.345,16.538,8.632,23.57,14.701c7.974,6.882,11.413,17.885,11.449,28.418
						c0.024,7.108-1.314,14.103-3.086,21.011c-8.075,7.857-18.067,13.785-28.84,17.634
						C243.547,384.655,243.845,379.533,243.178,374.677z"/>
					<g>
						<path style="fill:#FFFFFF;" d="M134.1,306.541c0.414-21.066,10.427-41.57,26.787-54.848
							c10.008-8.123,22.175-13.359,34.852-15.305c2.353,0.231,4.68,0.622,6.97,1.169c-14.709,0.861-29.126,6.286-40.621,15.615
							c-15.93,12.929-25.68,32.893-26.082,53.406c-0.452,23.04,10.819,46.525,30.149,62.822
							c15.149,12.773,35.273,21.241,57.392,24.289c-0.472,0.063-0.943,0.129-1.415,0.185c-1.988,0.234-3.985,0.399-5.986,0.507
							c-19.652-3.812-37.448-11.912-51.219-23.523C145.161,354.194,133.637,330.15,134.1,306.541z"/>
					</g>
				</g>
				<g>
					<g>
						<g>
							<path style="fill:#FFA8A7;" d="M268.928,366.977c-1.029,4.102-1.232,11.497-1.232,11.497l-2.727-1.028
								c-2.644-0.996-5.627-0.317-7.579,1.726l-0.134,0.14c-1.015,1.062-2.685,1.137-3.791,0.172l0,0
								c-0.575-0.502-0.915-1.22-0.939-1.982l-0.366-11.609L268.928,366.977z"/>
							<path style="fill:#F5F5F5;" d="M258.398,410.124c5.66,6.055,16.082,11.346,23.654,6.182l-0.85,1.927
								c-7.572,5.164-17.994-0.128-23.654-6.182c-5.66-6.055-1.987-10.249-7.081-15.62c-3.323-3.288-4.404-6.542-4.404-6.542
								c0.226-0.578,0.443-1.333,0.71-2.197c0.672,1.511,2.176,4.469,4.544,6.813C256.411,399.875,252.739,404.069,258.398,410.124z
								"/>
							<path style="fill:#BA68C8;" d="M249.563,381.366c1.245-1.956,1.659-3.308,1.779-4.129c0.103-0.701,0.52-1.31,1.121-1.684
								l0.061,1.948c0.024,0.762,0.364,1.48,0.939,1.982c1.106,0.966,2.776,0.89,3.791-0.172l0.134-0.14
								c1.952-2.043,4.935-2.722,7.579-1.726l2.772,1.044c0.847,0.319,1.398,1.134,1.378,2.04
								c-0.177,7.939,3.531,18.483,7.419,24.277c3.999,1.656,7.452,7.106,5.69,11.101l-0.176,0.398
								c-7.572,5.164-17.994-0.128-23.654-6.182c-5.66-6.055-1.987-10.249-7.081-15.62c-2.368-2.343-3.872-5.302-4.544-6.813
								C247.308,385.956,248.052,383.741,249.563,381.366z"/>
							<path style="opacity:0.3;" d="M249.563,381.366c1.245-1.956,1.659-3.308,1.779-4.129c0.103-0.701,0.52-1.31,1.121-1.684
								l0.061,1.948c0.024,0.762,0.364,1.48,0.939,1.982c1.106,0.966,2.776,0.89,3.791-0.172l0.134-0.14
								c1.952-2.043,4.935-2.722,7.579-1.726l2.772,1.044c0.847,0.319,1.398,1.134,1.378,2.04
								c-0.177,7.939,3.531,18.483,7.419,24.277c3.999,1.656,7.452,7.106,5.69,11.101l-0.176,0.398
								c-7.572,5.164-17.994-0.128-23.654-6.182c-5.66-6.055-1.987-10.249-7.081-15.62c-2.368-2.343-3.872-5.302-4.544-6.813
								C247.308,385.956,248.052,383.741,249.563,381.366z"/>
							<path style="opacity:0.2;fill:#FFFFFF;" d="M249.563,381.366c1.245-1.956,1.659-3.308,1.779-4.129
								c0.103-0.701,0.52-1.31,1.121-1.684l0.061,1.948c0.024,0.762,0.364,1.48,0.939,1.982c1.106,0.966,2.776,0.89,3.791-0.172
								l0.134-0.14c1.952-2.043,4.935-2.722,7.579-1.726l2.772,1.044c0.847,0.319,1.398,1.134,1.378,2.04
								c-0.177,7.939,3.531,18.483,7.419,24.277c3.999,1.656,7.452,7.106,5.69,11.101l-0.176,0.398
								c-7.572,5.164-17.994-0.128-23.654-6.182c-5.66-6.055-1.987-10.249-7.081-15.62c-2.368-2.343-3.872-5.302-4.544-6.813
								C247.308,385.956,248.052,383.741,249.563,381.366z"/>
							<g>
								<path style="fill:#FFFFFF;" d="M260.636,392.827c-0.47,0.238-1.046,0.037-1.284-0.433c-0.235-0.464-0.068-1.045,0.394-1.284
									c4.354-2.25,8.088-1.503,10.872,0.018c0.169,0.625,0.349,1.247,0.54,1.866C267.952,391.365,264.699,390.773,260.636,392.827
									z"/>
								<path style="fill:#FFFFFF;" d="M259.242,388.535c-0.47,0.238-1.046,0.037-1.284-0.433c-0.235-0.464-0.068-1.045,0.394-1.284
									c4.33-2.237,8.301-1.559,11.313,0.09c0.114,0.646,0.247,1.296,0.391,1.947C266.755,387.114,263.429,386.418,259.242,388.535
									z"/>
								<path style="fill:#FFFFFF;" d="M262.166,397.098c-0.47,0.238-1.046,0.037-1.284-0.433c-0.235-0.464-0.068-1.045,0.394-1.284
									c4.234-2.188,7.882-1.541,10.64-0.106c0.241,0.673,0.494,1.332,0.755,1.981C269.47,395.634,266.222,395.047,262.166,397.098
									z"/>
								<path style="fill:#FFFFFF;" d="M276.538,404.807c3.999,1.656,7.452,7.106,5.69,11.101l-0.176,0.398
									c-7.46,5.088-17.677,0.024-23.39-5.916C263.427,401.045,273.389,403.375,276.538,404.807z"/>
								<path style="fill:#FFFFFF;" d="M263.84,401.269c-0.47,0.238-1.046,0.037-1.284-0.433c-0.235-0.464-0.068-1.045,0.394-1.284
									c4.245-2.194,7.901-1.538,10.661-0.095c0.338,0.741,0.687,1.45,1.043,2.133C271.353,399.848,268.026,399.153,263.84,401.269
									z"/>
							</g>
						</g>
						<g>
							<path style="fill:#FFA8A7;" d="M280.826,390.059c0.715,4.168,3.513,11.016,3.513,11.016l-2.91,0.16
								c-2.821,0.155-5.277,1.981-6.238,4.638l-0.066,0.182c-0.5,1.381-1.997,2.124-3.399,1.687l0,0
								c-0.728-0.227-1.329-0.747-1.659-1.435l-5.021-10.474L280.826,390.059z"/>
							<path style="fill:#F5F5F5;" d="M288.606,433.785c7.622,3.255,19.294,3.89,24.137-3.891V432
								c-4.843,7.781-16.514,7.146-24.137,3.891c-7.622-3.255-5.954-8.575-12.783-11.433c-4.367-1.667-6.669-4.208-6.669-4.208
								c-0.026-0.62-0.132-1.398-0.238-2.297c1.224,1.112,3.795,3.211,6.907,4.399C282.652,425.21,280.984,430.529,288.606,433.785z
								"/>
							<path style="fill:#BA68C8;" d="M268.916,411.039c0.349-2.292,0.182-3.696-0.039-4.495c-0.189-0.683-0.053-1.408,0.346-1.993
								l0.843,1.757c0.33,0.688,0.931,1.208,1.659,1.435c1.402,0.437,2.899-0.306,3.399-1.687l0.066-0.182
								c0.962-2.657,3.417-4.483,6.238-4.638l2.958-0.163c0.904-0.05,1.737,0.473,2.084,1.31
								c3.042,7.336,10.691,15.486,16.586,19.217c4.327-0.099,9.686,3.493,9.686,7.86v0.435c-4.843,7.781-16.514,7.146-24.137,3.891
								c-7.622-3.255-5.954-8.575-12.783-11.433c-3.112-1.188-5.683-3.288-6.907-4.399
								C268.704,416.149,268.492,413.822,268.916,411.039z"/>
							<path style="opacity:0.3;" d="M268.916,411.039c0.349-2.292,0.182-3.696-0.039-4.495c-0.189-0.683-0.053-1.408,0.346-1.993
								l0.843,1.757c0.33,0.688,0.931,1.208,1.659,1.435c1.402,0.437,2.899-0.306,3.399-1.687l0.066-0.182
								c0.962-2.657,3.417-4.483,6.238-4.638l2.958-0.163c0.904-0.05,1.737,0.473,2.084,1.31
								c3.042,7.336,10.691,15.486,16.586,19.217c4.327-0.099,9.686,3.493,9.686,7.86v0.435c-4.843,7.781-16.514,7.146-24.137,3.891
								c-7.622-3.255-5.954-8.575-12.783-11.433c-3.112-1.188-5.683-3.288-6.907-4.399
								C268.704,416.149,268.492,413.822,268.916,411.039z"/>
							<path style="opacity:0.2;fill:#FFFFFF;" d="M268.916,411.039c0.349-2.292,0.182-3.696-0.039-4.495
								c-0.189-0.683-0.053-1.408,0.346-1.993l0.843,1.757c0.33,0.688,0.931,1.208,1.659,1.435c1.402,0.437,2.899-0.306,3.399-1.687
								l0.066-0.182c0.962-2.657,3.417-4.483,6.238-4.638l2.958-0.163c0.904-0.05,1.737,0.473,2.084,1.31
								c3.042,7.336,10.691,15.486,16.586,19.217c4.327-0.099,9.686,3.493,9.686,7.86v0.435c-4.843,7.781-16.514,7.146-24.137,3.891
								c-7.622-3.255-5.954-8.575-12.783-11.433c-3.112-1.188-5.683-3.288-6.907-4.399
								C268.704,416.149,268.492,413.822,268.916,411.039z"/>
							<g>
								<path style="fill:#FFFFFF;" d="M283.672,417.056c-0.334,0.407-0.942,0.456-1.349,0.122c-0.402-0.33-0.484-0.929-0.158-1.334
									c3.076-3.816,6.794-4.639,9.954-4.372c0.407,0.504,0.822,1.001,1.247,1.489
									C289.776,412.766,286.561,413.537,283.672,417.056z"/>
								<path style="fill:#FFFFFF;" d="M280.665,413.692c-0.334,0.407-0.942,0.456-1.349,0.122c-0.402-0.33-0.484-0.929-0.158-1.334
									c3.059-3.795,6.965-4.777,10.387-4.483c0.365,0.545,0.749,1.086,1.144,1.624
									C286.965,409.359,283.641,410.065,280.665,413.692z"/>
								<path style="fill:#FFFFFF;" d="M286.796,420.346c-0.334,0.407-0.942,0.456-1.349,0.122c-0.402-0.33-0.484-0.928-0.158-1.334
									c2.991-3.711,6.59-4.591,9.692-4.391c0.492,0.519,0.99,1.019,1.491,1.508C292.888,416.059,289.679,416.833,286.796,420.346z
									"/>
								<path style="fill:#FFFFFF;" d="M303.057,421.599c4.327-0.099,9.686,3.493,9.686,7.86v0.435
									c-4.772,7.666-16.163,7.157-23.788,4.027C289.543,423.449,299.598,421.56,303.057,421.599z"/>
								<path style="fill:#FFFFFF;" d="M290.011,423.487c-0.334,0.407-0.942,0.456-1.349,0.122c-0.402-0.33-0.484-0.929-0.158-1.334
									c2.998-3.72,6.608-4.596,9.716-4.39c0.608,0.541,1.214,1.049,1.815,1.53C296.311,419.155,292.987,419.861,290.011,423.487z"
									/>
							</g>
						</g>
						<path style="fill:#263238;" d="M236.046,290.912l38.153,21.257c7.091,3.951,10.869,11.987,9.387,19.967l-7.405,39.88
							l6.074,19.294c-5.24,7.026-17.269,7.384-17.269,7.384c-6.709-13.458-11.632-19.174-15.443-30.449
							c-3.811-11.274-6.352-19.055-6.352-19.055l-31.686-8.66c-14.812-4.048-25.735-16.687-27.456-31.946
							c-0.54-4.791-0.564-8.063-0.564-8.063L236.046,290.912z"/>
						<path style="opacity:0.2;" d="M235.757,301.63c0.01,4.216-1.532,8.419-4.267,11.628l26.923,16.852
							c3.951,2.473,6.876,6.288,8.239,10.745l9.529,31.16l-8.594-34.702c-0.988-3.992-3.501-7.437-6.999-9.599l-24.86-15.365
							C238.269,305.997,235.757,301.63,235.757,301.63z"/>
					</g>
					<g>
						<g>
							<path style="fill:#E0E0E0;" d="M205.604,316.528c-0.012,0.169-0.002,0.338,0.048,0.505c0.004,0.012,0.004,0.024,0.008,0.037
								c0.044,0.133,0.113,0.264,0.196,0.391c0.009,0.014,0.013,0.028,0.023,0.042c0.092,0.133,0.209,0.261,0.346,0.384
								c0.008,0.007,0.013,0.015,0.021,0.022c0.147,0.13,0.318,0.253,0.515,0.367l27.921,16.226
								c0.244,0.142,0.517,0.254,0.801,0.352c0.1,0.034,0.203,0.064,0.307,0.094c0.134,0.038,0.267,0.073,0.406,0.101
								c0.163,0.034,0.328,0.064,0.497,0.085c0.04,0.005,0.078,0.012,0.118,0.017c0.226,0.024,0.455,0.036,0.684,0.038
								c0.036,0,0.073,0.001,0.109,0c0.226-0.002,0.451-0.014,0.674-0.038c0.034-0.004,0.067-0.007,0.101-0.011
								c0.221-0.027,0.439-0.064,0.652-0.112c0.04-0.009,0.078-0.019,0.117-0.029c0.193-0.048,0.38-0.105,0.562-0.171
								c0.033-0.012,0.068-0.021,0.101-0.034c0.218-0.084,0.425-0.181,0.618-0.292l46.065-26.596
								c0.199-0.115,0.373-0.239,0.522-0.369c0.053-0.046,0.085-0.096,0.131-0.143c0.086-0.088,0.178-0.174,0.242-0.267
								c0.04-0.057,0.058-0.116,0.09-0.174c0.048-0.087,0.104-0.173,0.134-0.262c0.021-0.063,0.02-0.127,0.032-0.191
								c0.017-0.086,0.043-0.172,0.043-0.259v1.634c0,0.087-0.026,0.173-0.043,0.259c-0.012,0.064-0.011,0.128-0.032,0.191
								c-0.03,0.089-0.086,0.175-0.134,0.262c-0.032,0.058-0.05,0.117-0.09,0.174c-0.065,0.092-0.157,0.179-0.242,0.267
								c-0.046,0.047-0.078,0.098-0.131,0.143c-0.149,0.131-0.323,0.255-0.522,0.369l-46.065,26.596
								c-0.192,0.111-0.4,0.207-0.618,0.291c-0.033,0.013-0.068,0.022-0.101,0.034c-0.181,0.066-0.368,0.123-0.562,0.171
								c-0.039,0.01-0.078,0.02-0.117,0.029c-0.213,0.048-0.431,0.086-0.652,0.112c-0.034,0.004-0.067,0.008-0.101,0.012
								c-0.223,0.023-0.448,0.036-0.674,0.038c-0.036,0-0.073,0-0.109,0c-0.229-0.002-0.458-0.013-0.684-0.038
								c-0.04-0.004-0.079-0.012-0.118-0.017c-0.168-0.021-0.333-0.051-0.497-0.085c-0.139-0.028-0.272-0.064-0.406-0.101
								c-0.104-0.029-0.207-0.059-0.307-0.094c-0.284-0.098-0.557-0.21-0.801-0.352L206.76,319.91
								c-0.197-0.114-0.368-0.237-0.515-0.367c-0.008-0.007-0.013-0.015-0.021-0.023c-0.136-0.123-0.253-0.251-0.346-0.384
								c-0.01-0.014-0.014-0.028-0.023-0.042c-0.084-0.128-0.153-0.258-0.196-0.391c-0.004-0.012-0.004-0.025-0.008-0.037
								c-0.037-0.122-0.032-0.245-0.035-0.368l-0.026,0.003v-1.772L205.604,316.528z"/>
							<path style="opacity:0.2;" d="M205.604,316.528c-0.012,0.169-0.002,0.338,0.048,0.505c0.004,0.012,0.004,0.024,0.008,0.037
								c0.044,0.133,0.113,0.264,0.196,0.391c0.009,0.014,0.013,0.028,0.023,0.042c0.092,0.133,0.209,0.261,0.346,0.384
								c0.008,0.007,0.013,0.015,0.021,0.022c0.147,0.13,0.318,0.253,0.515,0.367l27.921,16.226
								c0.244,0.142,0.517,0.254,0.801,0.352c0.1,0.034,0.203,0.064,0.307,0.094c0.134,0.038,0.267,0.073,0.406,0.101
								c0.163,0.034,0.328,0.064,0.497,0.085c0.04,0.005,0.078,0.012,0.118,0.017c0.226,0.024,0.455,0.036,0.684,0.038
								c0.036,0,0.073,0.001,0.109,0c0.226-0.002,0.451-0.014,0.674-0.038c0.034-0.004,0.067-0.007,0.101-0.011
								c0.221-0.027,0.439-0.064,0.652-0.112c0.04-0.009,0.078-0.019,0.117-0.029c0.193-0.048,0.38-0.105,0.562-0.171
								c0.033-0.012,0.068-0.021,0.101-0.034c0.218-0.084,0.425-0.181,0.618-0.292l46.065-26.596
								c0.199-0.115,0.373-0.239,0.522-0.369c0.053-0.046,0.085-0.096,0.131-0.143c0.086-0.088,0.178-0.174,0.242-0.267
								c0.04-0.057,0.058-0.116,0.09-0.174c0.048-0.087,0.104-0.173,0.134-0.262c0.021-0.063,0.02-0.127,0.032-0.191
								c0.017-0.086,0.043-0.172,0.043-0.259v1.634c0,0.087-0.026,0.173-0.043,0.259c-0.012,0.064-0.011,0.128-0.032,0.191
								c-0.03,0.089-0.086,0.175-0.134,0.262c-0.032,0.058-0.05,0.117-0.09,0.174c-0.065,0.092-0.157,0.179-0.242,0.267
								c-0.046,0.047-0.078,0.098-0.131,0.143c-0.149,0.131-0.323,0.255-0.522,0.369l-46.065,26.596
								c-0.192,0.111-0.4,0.207-0.618,0.291c-0.033,0.013-0.068,0.022-0.101,0.034c-0.181,0.066-0.368,0.123-0.562,0.171
								c-0.039,0.01-0.078,0.02-0.117,0.029c-0.213,0.048-0.431,0.086-0.652,0.112c-0.034,0.004-0.067,0.008-0.101,0.012
								c-0.223,0.023-0.448,0.036-0.674,0.038c-0.036,0-0.073,0-0.109,0c-0.229-0.002-0.458-0.013-0.684-0.038
								c-0.04-0.004-0.079-0.012-0.118-0.017c-0.168-0.021-0.333-0.051-0.497-0.085c-0.139-0.028-0.272-0.064-0.406-0.101
								c-0.104-0.029-0.207-0.059-0.307-0.094c-0.284-0.098-0.557-0.21-0.801-0.352L206.76,319.91
								c-0.197-0.114-0.368-0.237-0.515-0.367c-0.008-0.007-0.013-0.015-0.021-0.023c-0.136-0.123-0.253-0.251-0.346-0.384
								c-0.01-0.014-0.014-0.028-0.023-0.042c-0.084-0.128-0.153-0.258-0.196-0.391c-0.004-0.012-0.004-0.025-0.008-0.037
								c-0.037-0.122-0.032-0.245-0.035-0.368l-0.026,0.003v-1.772L205.604,316.528z"/>
							<path style="fill:#E0E0E0;" d="M287.613,306.691c-0.03,0.089-0.086,0.175-0.134,0.262c-0.032,0.058-0.05,0.117-0.09,0.174
								c-0.065,0.092-0.157,0.179-0.242,0.267c-0.046,0.047-0.078,0.097-0.131,0.143c-0.149,0.131-0.323,0.254-0.522,0.369
								l-46.065,26.596c-0.192,0.111-0.4,0.208-0.618,0.292c-0.033,0.013-0.068,0.022-0.101,0.034
								c-0.181,0.066-0.368,0.123-0.562,0.171c-0.039,0.01-0.078,0.02-0.117,0.029c-0.213,0.048-0.431,0.086-0.652,0.112
								c-0.034,0.004-0.067,0.008-0.101,0.011c-0.223,0.023-0.448,0.036-0.674,0.038c-0.036,0-0.073,0-0.109,0
								c-0.229-0.002-0.458-0.014-0.684-0.038c-0.04-0.004-0.079-0.012-0.118-0.017c-0.168-0.021-0.333-0.052-0.497-0.085
								c-0.139-0.028-0.272-0.064-0.406-0.101c-0.104-0.029-0.207-0.059-0.307-0.094c-0.284-0.098-0.557-0.21-0.801-0.352
								l-27.921-16.226c-0.197-0.114-0.368-0.237-0.515-0.367c-0.008-0.007-0.013-0.015-0.021-0.022
								c-0.136-0.123-0.253-0.251-0.346-0.384c-0.01-0.014-0.014-0.028-0.023-0.042c-0.084-0.128-0.153-0.258-0.196-0.391
								c-0.004-0.012-0.004-0.024-0.008-0.037c-0.05-0.167-0.06-0.336-0.048-0.505c0.04-0.573,0.428-1.139,1.184-1.576
								l46.065-26.596c1.588-0.917,4.152-0.917,5.73,0l27.921,16.226c0.792,0.46,1.185,1.06,1.185,1.659
								c0,0.087-0.026,0.173-0.043,0.259C287.633,306.564,287.634,306.629,287.613,306.691z"/>
							<path style="fill:#E0E0E0;" d="M283.777,306.241l-44.752,25.837c-0.046,0.027-0.096,0.05-0.176,0.085l-0.097,0.033
								c-0.083,0.031-0.171,0.059-0.35,0.102c-0.12,0.029-0.242,0.048-0.246,0.052l-0.169,0.016
								c-0.119,0.012-0.249,0.019-0.436,0.022h-0.04c-0.138-0.001-0.276-0.008-0.458-0.03c-0.096-0.012-0.189-0.03-0.292-0.052
								c-0.07-0.014-0.362-0.097-0.362-0.097c-0.107-0.037-0.213-0.071-0.31-0.129l-14.395-8.37l46.227-26.689L283.777,306.241z"/>
							<path style="fill:#263238;" d="M237.5,332.39c0.02,0,0.032-0.001,0.05-0.001h0.016L237.5,332.39z"/>
							<path style="fill:#E0E0E0;" d="M241.203,299.134l8.419,4.952c0.563,0.331,0.559,1.145-0.006,1.472l-12.589,7.268
								c-0.436,0.252-0.975,0.25-1.41-0.006l-8.419-4.952c-0.562-0.331-0.559-1.145,0.006-1.471l12.588-7.268
								C240.23,298.876,240.768,298.879,241.203,299.134z"/>
							<path style="opacity:0.4;" d="M283.777,306.241l-44.752,25.837c-0.046,0.027-0.096,0.05-0.176,0.085l-0.097,0.033
								c-0.083,0.031-0.171,0.059-0.35,0.102c-0.12,0.029-0.242,0.048-0.246,0.052l-0.169,0.016
								c-0.119,0.012-0.249,0.019-0.436,0.022h-0.04c-0.138-0.001-0.276-0.008-0.458-0.03c-0.096-0.012-0.189-0.03-0.292-0.052
								c-0.07-0.014-0.362-0.097-0.362-0.097c-0.107-0.037-0.213-0.071-0.31-0.129l-14.395-8.37l46.227-26.689L283.777,306.241z"/>
							<path style="opacity:0.4;" d="M241.203,299.134l8.419,4.952c0.563,0.331,0.559,1.145-0.006,1.472l-12.589,7.268
								c-0.436,0.252-0.975,0.25-1.41-0.006l-8.419-4.952c-0.562-0.331-0.559-1.145,0.006-1.471l12.588-7.268
								C240.23,298.876,240.768,298.879,241.203,299.134z"/>
						</g>
						<g>
							<path style="fill:#E0E0E0;" d="M237.831,332.85l4.769-30.324c0.262-1.665,1.26-3.123,2.717-3.97l46.384-26.968
								c0.411-0.239,0.855-0.235,1.232-0.077l0.002-0.008l1.102,0.55l-0.372,0.139c0.117,0.241,0.169,0.52,0.122,0.823
								l-4.768,30.324c-0.262,1.665-1.26,3.123-2.717,3.97l-46.384,26.968c-0.099,0.057-0.201,0.09-0.302,0.121l0.043,0.447
								l-1.068-0.526l0.02-0.003C238.093,334.064,237.727,333.512,237.831,332.85z"/>
							<path style="opacity:0.3;" d="M237.831,332.85l4.769-30.324c0.262-1.665,1.26-3.123,2.717-3.97l46.384-26.968
								c0.411-0.239,0.855-0.235,1.232-0.077l0.002-0.008l1.102,0.55l-0.372,0.139c0.117,0.241,0.169,0.52,0.122,0.823
								l-4.768,30.324c-0.262,1.665-1.26,3.123-2.717,3.97l-46.384,26.968c-0.099,0.057-0.201,0.09-0.302,0.121l0.043,0.447
								l-1.068-0.526l0.02-0.003C238.093,334.064,237.727,333.512,237.831,332.85z"/>
							<path style="fill:#E0E0E0;" d="M246.25,299.022l46.384-26.968c1.019-0.592,2.269,0.263,2.086,1.427l-4.769,30.324
								c-0.262,1.665-1.259,3.123-2.717,3.97l-46.384,26.968c-1.019,0.592-2.269-0.263-2.086-1.427l4.769-30.324
								C243.795,301.328,244.793,299.869,246.25,299.022z"/>
							<g>
								<path style="fill:#FFFFFF;" d="M268.729,299.806c-2.247,1.297-4.301,4.265-4.603,6.63c-0.302,2.366,1.26,3.245,3.508,1.948
									c2.237-1.291,4.301-4.265,4.603-6.63C272.539,299.388,270.966,298.515,268.729,299.806z"/>
							</g>
						</g>
						<g>
							<g>
								<path style="fill:#F28F8F;" d="M241.341,253.737l12.568,10.208l8.287-13.446l-10.428-11.745
									C242.603,242.816,241.341,253.737,241.341,253.737z"/>
							</g>
							<g>
								<path style="fill:#455A64;" d="M222.9,219.014c9.879-1.115,10.794,1.08,17.197,7.117
									c6.403,6.037,12.879,12.842,12.879,12.842c-9.879,4.83-10.977,16.575-10.977,16.575c-5.378-4.171-9.931-7.464-9.931-7.464
									L222.9,219.014z"/>
								<path style="opacity:0.5;fill:#FFFFFF;" d="M222.9,219.014c9.879-1.115,10.794,1.08,17.197,7.117
									c6.403,6.037,12.879,12.842,12.879,12.842c-9.879,4.83-10.977,16.575-10.977,16.575c-5.378-4.171-9.931-7.464-9.931-7.464
									L222.9,219.014z"/>
							</g>
						</g>
						<g>
							<path style="fill:#455A64;" d="M186.824,226.863c14.05-6.586,24.588-7.355,36.076-7.849
								c17.197,11.069,10.757,20.289,10.464,35.071c-0.293,14.782-3.513,23.709,6.732,39.077
								c-22.538,18.001-51.004,12.31-57.81,7.984C177.896,260.232,179.182,230.019,186.824,226.863z"/>
							<path style="opacity:0.7;fill:#FFFFFF;" d="M186.824,226.863c14.05-6.586,24.588-7.355,36.076-7.849
								c17.197,11.069,10.757,20.289,10.464,35.071c-0.293,14.782-3.513,23.709,6.732,39.077
								c-22.538,18.001-51.004,12.31-57.81,7.984C177.896,260.232,179.182,230.019,186.824,226.863z"/>
						</g>
						<g>
							<path style="fill:#37474F;" d="M229.655,196.633c2.164-2.026,3.535-4.877,3.767-7.831c0.232-2.955-0.677-5.985-2.497-8.324
								c1.213-0.789,2.333-1.983,2.752-3.368c0.403-1.333-0.086-2.89-1.179-3.754c-1.093-0.864-2.72-0.98-3.925-0.28
								c0.54-2.059-0.722-4.598-2.682-5.428c-1.96-0.83-4.47-0.019-5.573,1.801c-0.088-1.354-1.188-2.526-2.521-2.78
								c-1.334-0.253-2.71,0.162-3.926,0.764c-1.216,0.602-2.335,1.392-3.565,1.965c-2.078,0.969-4.388,1.284-6.634,1.74
								c-2.247,0.456-4.543,1.103-6.291,2.587c-1.747,1.484-3.055,4.591-1.702,6.943c-0.748-0.732-1.852-1.183-2.894-1.083
								c-1.042,0.1-2.028,0.679-2.623,1.54c1.534,0.694,3.03,1.462,4.563,2.156c-1.512-0.456-3.51,0.829-4.106,2.292
								c-0.596,1.462-0.417,3.114-0.167,4.673c0.95,5.924,2.805,11.696,5.419,17.096c1.352,2.791,3.157,5.701,6.098,6.688
								L229.655,196.633z"/>
							<path style="fill:#FFA8A7;" d="M229.498,182.135c-2.418,2.482-6.387,4.109-9.852,4.147c-3.465,0.038-6.82-1.105-10.16-2.025
								c-0.289,1.61-1.107,3.12-2.297,4.241c-1.191,1.121-3.103,1.869-4.727,2.061c0.478,3.124,0.466,6.322-0.037,9.442
								c-0.107,0.662-0.552,1.264-1.196,1.451c-1.125,0.328-1.872-0.826-2.42-1.759c-0.624-1.062-1.395-2.075-2.441-2.724
								c-1.046-0.649-2.41-0.883-3.525-0.361c-0.911,0.426-1.558,1.308-1.859,2.268c-0.301,0.96-0.289,1.994-0.146,2.99
								c0.239,1.66,0.854,3.293,1.941,4.572c1.086,1.279,2.671,2.173,4.347,2.241c1.676,0.068,3.345-0.606,4.178-2.063l0.074,0.305
								c0.121,0.5,0.278,0.985,0.457,1.459c1.493,3.961,4.913,6.931,9.126,7.813c2.116,0.443,4.468,0.867,6.865,1.231
								c1.178,0.179,2.363,0.347,3.544,0.487c4.504,0.534,8.65-2.52,9.441-6.986C232.424,201.802,232.96,191.173,229.498,182.135z"
								/>
							<g>
								<path style="fill:#FFA8A7;" d="M201.833,208.38v15.896c2.938,4.043,7.804,6.777,12.792,7.085
									c1.622,0.1,3.389-0.087,4.595-1.175c0.973-0.878,1.427-2.295,1.145-3.576c-0.208-0.943-0.808-1.785-1.611-2.319
									c-0.573-0.381-0.93-1.01-0.93-1.698v-5.169c-2.397-0.363-4.749-0.788-6.865-1.231
									C206.745,215.311,203.326,212.342,201.833,208.38z"/>
								<path style="opacity:0.2;" d="M212.455,219.692c1.755,0.486,3.557,0.751,5.369,0.952v-3.221
									c-2.397-0.363-4.749-0.788-6.865-1.231c-3.961-0.829-7.199-3.516-8.816-7.125c0.419,2.473,1.494,4.84,3.218,6.654
									C207.251,217.711,209.811,218.96,212.455,219.692z"/>
							</g>
							<path style="fill:#BA68C8;" d="M222.591,193.66h-0.995h-1.063c-4.31-2.838-9.45-3.395-14.207-1.448v2.164l0.57,0.303
								c0.41,1.336,0.386,2.86,0.527,4.253c0.141,1.393,0.53,2.861,1.57,3.768c1.131,0.986,2.743,1.076,4.228,1.095
								c1.195,0.016,2.436,0.008,3.52-0.509c1.279-0.609,2.178-1.866,2.682-3.218c0.504-1.352,0.421-2.135,1.051-3.763
								c0.303-0.781,1.123-0.755,1.123-0.755s0.767-0.026,1.05,0.755c0.59,1.628,0.512,2.411,0.983,3.763
								c0.471,1.352,1.312,2.609,2.51,3.218c1.014,0.516,2.175,0.525,3.293,0.509c1.389-0.02,2.897-0.109,3.956-1.095
								c0.973-0.907,1.336-2.375,1.468-3.768c0.132-1.393,0.11-2.917,0.493-4.253l0.533-0.303v-2.164
								C231.433,190.265,226.623,190.822,222.591,193.66z M219.496,194.771l-0.082,0.774c-0.121,1.147-0.509,2.677-1.036,4.092
								c-0.267,0.717-0.899,2.008-2.124,2.591c-0.753,0.359-1.659,0.408-2.526,0.408l-0.464-0.004
								c-1.302-0.017-2.644-0.096-3.495-0.838c-0.662-0.577-1.056-1.565-1.203-3.021c-0.037-0.361-0.062-0.733-0.087-1.108
								c-0.068-1.034-0.011-3.303,0.081-4.942c1.183-0.329,2.39-0.496,3.604-0.496c2.516,0,5.012,0.728,7.245,2.109
								C219.531,194.41,219.496,194.771,219.496,194.771z M233.866,197.665c-0.023,0.374-0.046,0.746-0.081,1.108
								c-0.137,1.456-0.506,2.445-1.125,3.021c-0.796,0.742-2.052,0.821-3.27,0.838l-0.434,0.004c-0.811,0-1.658-0.049-2.363-0.408
								c-1.146-0.583-1.737-1.874-1.987-2.591c-0.493-1.415-0.856-2.945-0.969-4.092l-0.076-0.773c0,0-0.033-0.361,0.08-0.435
								c2.089-1.381,4.424-2.109,6.778-2.109c1.136,0,2.265,0.166,3.372,0.496C233.877,194.361,233.93,196.631,233.866,197.665z"/>
							<path style="fill:#BA68C8;" d="M206.326,192.212l-11.566,4.158c1.117,0.267,1.786,0.642,2.264,1.061
								c0.124,0.109,9.302-3.055,9.302-3.055V192.212z"/>
							<g>
								<polygon style="fill:#F28F8F;" points="221.546,195.727 227.381,202.794 222.028,204.685 								"/>
								<path style="fill:#37474F;" d="M213.304,196.611c-0.006,0.885,0.708,1.607,1.593,1.613c0.885,0.005,1.607-0.708,1.613-1.593
									c0.006-0.885-0.707-1.607-1.593-1.613C214.032,195.013,213.31,195.726,213.304,196.611z"/>
								<path style="fill:#37474F;" d="M226.763,196.177c-0.006,0.885,0.708,1.607,1.592,1.613c0.885,0.006,1.607-0.707,1.613-1.592
									c0.005-0.885-0.708-1.607-1.593-1.613C227.491,194.579,226.768,195.292,226.763,196.177z"/>
								<path style="fill:#37474F;" d="M225.916,189.064c1.431,0.162,2.861,0.324,4.292,0.485c-0.089-0.909-0.904-1.713-1.8-1.888
									C227.512,187.487,226.34,188.256,225.916,189.064z"/>
								<path style="fill:#37474F;" d="M215.963,188.523c-1.311,0.596-2.622,1.191-3.932,1.786c-0.196-0.892,0.331-1.908,1.13-2.352
									C213.959,187.515,215.31,187.885,215.963,188.523z"/>
								<g>
									<path style="fill:#F28F8F;" d="M216.258,207.662c1.583,0.53,3.167,1.06,4.75,1.59c-0.518,1.1-2.098,1.755-3.262,1.405
										C216.583,210.305,216.083,208.864,216.258,207.662z"/>
									<path style="opacity:0.3;" d="M216.258,207.662c1.583,0.53,3.167,1.06,4.75,1.59c-0.518,1.1-2.098,1.755-3.262,1.405
										C216.583,210.305,216.083,208.864,216.258,207.662z"/>
									<path style="fill:#F28F8F;" d="M219.317,210.6c-0.525,0.165-1.083,0.202-1.57,0.056c-0.914-0.275-1.412-1.223-1.502-2.199
										c0.635-0.08,1.297,0.044,1.84,0.383C218.712,209.229,219.149,209.883,219.317,210.6z"/>
								</g>
							</g>
						</g>
						<g>
							<path style="fill:#F28F8F;" d="M231.135,230.153l-4.051,1.857c-0.835,0.383-1.186,1.383-0.774,2.204l0,0
								c0.323,0.642,1.029,0.996,1.737,0.869l9.971-1.788l-3.041-3.87L231.135,230.153z"/>
							<path style="fill:#FFA8A7;" d="M240.068,233.718l12.601,29.679c1.839,4.331,6.777,6.427,11.169,4.742l0,0
								c5.526-2.12,7.389-9.006,3.685-13.623l-20.587-25.659c-0.711-0.887-1.544-1.669-2.472-2.325l-6.278-4.434
								c-1.767-1.248-3.81-2.049-5.954-2.334l0,0l-3.061-2.248c-0.84-0.617-1.937-0.764-2.91-0.389l-4.715,1.814l0,0
								c0.617,1.348,2.105,2.067,3.545,1.714l1.88-0.461l2.196,1.619l-2.857,3.974c-0.783,1.089-0.56,2.602,0.503,3.419l5.399,4.148
								c0.495,0.38,1.143,0.498,1.739,0.315l0,0c0.954-0.291,1.529-1.262,1.325-2.239l-0.007-0.032
								C237.319,233.742,240.068,233.718,240.068,233.718z"/>
							<path style="fill:#F28F8F;" d="M229.167,221.814c0.689-0.91,1.965-1.624,1.965-1.624l-3.787,0.28L229.167,221.814z"/>
						</g>
						<path style="fill:#FFA8A7;" d="M190.553,265.141l-4.295,14.725l26.26,18.652l8.828,3.716c2.34,0.985,4.364,2.595,5.851,4.652
							l7.201,9.962c0.805,1.675-2.949,4.391-4.75,4.853l0,0c-2.113,0.541-4.357-0.021-5.966-1.494l-5.559-5.09l-1.534-0.542
							c-4.49-1.586-8.386-4.509-11.165-8.376l0,0l-30.782-11.953c-5.608-2.177-8.674-8.231-7.112-14.04l5.107-18.992
							L190.553,265.141z"/>
						<path style="fill:#455A64;" d="M190.584,267.202l7.286-21.794c0,0,0.245-19.944-8.222-19.33
							c-8.467,0.614-12.762,5.522-19.265,35.095l-0.139,0.637C176.26,265.625,183.467,267.537,190.584,267.202z"/>
						<path style="opacity:0.5;fill:#FFFFFF;" d="M190.584,267.202l7.286-21.794c0,0,0.245-19.944-8.222-19.33
							c-8.467,0.614-12.762,5.522-19.265,35.095l-0.139,0.637C176.26,265.625,183.467,267.537,190.584,267.202z"/>
					</g>
				</g>
			</g>
		</g>
	</g>
</g>
<g id="Light_bulb">
	<g>
		<g id="freepik--light--inject-77_2_">
			<path style="fill:#37474F;" d="M210.833,149.163c0.031,1.949-1.524,3.553-3.472,3.584c-1.949,0.031-3.553-1.524-3.584-3.473
				c-0.031-1.946,1.52-3.549,3.465-3.584c1.948-0.035,3.556,1.517,3.591,3.465C210.833,149.158,210.833,149.161,210.833,149.163z"/>
			<path style="fill:#455A64;" d="M203.031,149.535c-2.364-1.312-2.403-3.503-0.077-4.899c2.646-1.391,5.796-1.437,8.481-0.124
				c2.352,1.316,2.392,3.507,0.072,4.888C208.865,150.795,205.716,150.845,203.031,149.535z"/>
			<path style="fill:#37474F;" d="M202.878,148.266c-2.435-1.361-2.474-3.617-0.085-5.051c2.728-1.431,5.974-1.482,8.746-0.138
				c2.434,1.361,2.474,3.617,0.069,5.044C208.89,149.567,205.643,149.621,202.878,148.266z"/>
			<path style="fill:#455A64;" d="M202.728,146.971c-2.501-1.399-2.54-3.72-0.056-5.14c2.8-1.473,6.134-1.525,8.978-0.139
				c2.512,1.395,2.556,3.726,0.093,5.202C208.922,148.354,205.574,148.382,202.728,146.971z"/>
			<path style="fill:#37474F;" d="M202.557,145.593c-2.579-1.433-2.611-3.834-0.075-5.351c2.892-1.528,6.339-1.586,9.281-0.156
				c2.583,1.444,2.627,3.84,0.079,5.363C208.947,146.972,205.499,147.026,202.557,145.593z"/>
			<path style="fill:#455A64;" d="M202.416,144.19c-2.668-1.527-2.684-3.921-0.085-5.476c2.955-1.562,6.479-1.616,9.479-0.144
				c2.641,1.46,2.68,3.91,0.081,5.465C208.939,145.596,205.419,145.653,202.416,144.19z"/>
			<path style="fill:#BA68C8;" d="M206.518,102.89c-9.279,0.124-16.701,7.746-16.577,17.026c0,0.026,0.001,0.051,0.001,0.077
				c0.207,13.364,11.251,15.416,11.361,20.792c0.114,1.039,0.779,1.935,1.739,2.346c2.6,1.27,5.649,1.225,8.211-0.12
				c0.934-0.446,1.558-1.357,1.637-2.389l0,0c-0.088-5.385,10.903-7.778,10.691-21.153c-0.123-9.279-7.745-16.701-17.024-16.578
				C206.545,102.889,206.532,102.89,206.518,102.89z"/>
			<g style="opacity:0.6;">
				<path style="fill:#FFFFFF;" d="M206.518,102.89c-9.279,0.124-16.701,7.746-16.577,17.026c0,0.026,0.001,0.051,0.001,0.077
					c0.207,13.364,11.251,15.416,11.361,20.792c0.114,1.039,0.779,1.935,1.739,2.346c2.6,1.27,5.649,1.225,8.211-0.12
					c0.934-0.446,1.558-1.357,1.637-2.389l0,0c-0.088-5.385,10.903-7.778,10.691-21.153c-0.123-9.279-7.745-16.701-17.024-16.578
					C206.545,102.889,206.532,102.89,206.518,102.89z"/>
			</g>
			<path style="fill:#BA68C8;" d="M204.069,142.428c-1.676-0.977-1.754-2.546-0.109-3.544c1.929-1.012,4.224-1.047,6.183-0.094
				c1.676,0.977,1.743,2.551,0.054,3.566C208.281,143.35,206.007,143.377,204.069,142.428z"/>
			<path style="fill:#FFFFFF;" d="M209.361,140.144c-0.307,0.001-0.561-0.239-0.577-0.546c-0.034-3.237,0.314-6.468,1.038-9.623
				c0.202-0.914,0.468-1.812,0.796-2.689c-0.517-0.182-1.013-0.419-1.479-0.706c-0.852-0.509-1.621-1.145-2.281-1.887
				c-0.636,0.742-1.377,1.387-2.199,1.914c-0.458,0.292-0.946,0.536-1.454,0.729c0.354,0.869,0.65,1.761,0.887,2.669
				c0.828,3.137,1.274,6.361,1.329,9.605c-0.007,0.314-0.264,0.564-0.577,0.564c-0.314-0.007-0.564-0.264-0.564-0.577
				c-0.07-3.142-0.507-6.265-1.301-9.306c-0.229-0.902-0.526-1.786-0.889-2.643c-1.149,0.244-2.345-0.089-3.203-0.89
				c-0.656-0.61-0.776-1.604-0.284-2.353c0.333-0.519,0.945-0.786,1.552-0.677c1.192,0.439,2.13,1.381,2.565,2.574
				c0.461-0.169,0.902-0.391,1.313-0.661c0.801-0.505,1.514-1.135,2.114-1.867c-0.724-0.898-1.046-2.055-0.889-3.198
				c0.169-0.696,0.803-1.178,1.518-1.155c0.713-0.047,1.36,0.416,1.546,1.105c0.201,1.136-0.081,2.305-0.778,3.224
				c0.619,0.713,1.348,1.322,2.158,1.806c0.422,0.251,0.87,0.455,1.337,0.608c0.409-1.201,1.317-2.166,2.49-2.648
				c0.608-0.115,1.225,0.153,1.557,0.675c0.522,0.728,0.434,1.727-0.206,2.353c-0.831,0.828-2.014,1.199-3.169,0.994
				c-0.337,0.869-0.61,1.762-0.816,2.671c-0.695,3.066-1.028,6.204-0.992,9.347c0.009,0.316-0.237,0.58-0.553,0.593L209.361,140.144
				z M199.87,124.872c-0.137,0.008-0.258,0.091-0.315,0.215c-0.276,0.38,0.054,0.791,0.163,0.903
				c0.498,0.451,1.171,0.658,1.836,0.565c-0.305-0.742-0.874-1.345-1.597-1.692L199.87,124.872z M212.244,126.437
				c0.672,0.06,1.338-0.174,1.824-0.643c0.096-0.116,0.424-0.529,0.144-0.909c-0.164-0.219-0.304-0.215-0.414-0.198
				C213.415,124.761,212.828,125.302,212.244,126.437z M206.822,120.616c-0.209-0.035-0.407,0.106-0.442,0.315
				c0,0.001,0,0.001,0,0.002c-0.069,0.658,0.1,1.319,0.478,1.863c0.353-0.558,0.497-1.223,0.407-1.877
				c-0.035-0.209-0.234-0.35-0.443-0.315c-0.001,0-0.003,0-0.004,0.001L206.822,120.616z"/>
		</g>
		<path style="fill:#E0E0E0;" d="M206.528,96.511c-0.093,0.034-0.191,0.051-0.29,0.05c-0.607,0.01-1.109-0.472-1.123-1.079
			l-0.122-5.733c-0.017-0.603,0.458-1.106,1.061-1.123c0.006,0,0.012,0,0.018,0c0.607-0.01,1.109,0.472,1.123,1.079l0.122,5.733
			C207.324,95.932,207.001,96.37,206.528,96.511z"/>
		<path style="fill:#E0E0E0;" d="M194.368,100.062c-0.475,0.143-0.987-0.052-1.246-0.476l-2.981-4.901
			c-0.283-0.54-0.075-1.207,0.465-1.491c0.493-0.258,1.1-0.11,1.419,0.347l2.976,4.889c0.315,0.52,0.149,1.197-0.37,1.514
			C194.552,100,194.462,100.04,194.368,100.062z"/>
		<path style="fill:#E0E0E0;" d="M185.623,109.22c-0.283,0.089-0.591,0.056-0.849-0.091l-5.038-2.759
			c-0.532-0.29-0.731-0.954-0.446-1.488c0.297-0.533,0.967-0.728,1.504-0.439l5.034,2.747c0.53,0.294,0.724,0.96,0.435,1.493
			C186.13,108.941,185.9,109.134,185.623,109.22z"/>
		<path style="fill:#E0E0E0;" d="M182.61,121.521c-0.082,0.051-0.173,0.087-0.268,0.106l-5.733,0.122
			c-0.596,0.021-1.097-0.445-1.118-1.041c0-0.009-0.001-0.018-0.001-0.027c-0.021-0.603,0.451-1.108,1.053-1.13
			c0.003,0,0.007,0,0.01,0l5.733-0.187c0.61,0.007,1.098,0.508,1.09,1.118c-0.006,0.471-0.31,0.886-0.757,1.035L182.61,121.521z"/>
		<path style="fill:#E0E0E0;" d="M237.27,120.307c-0.082,0.051-0.173,0.086-0.268,0.106l-5.755,0.066
			c-0.605,0.011-1.104-0.471-1.115-1.076c-0.011-0.605,0.471-1.104,1.076-1.115l5.728-0.133c0.61,0.007,1.098,0.508,1.09,1.118
			C238.021,119.743,237.717,120.159,237.27,120.307L237.27,120.307z"/>
		<path style="fill:#E0E0E0;" d="M227.991,108.281c-0.587,0.164-1.196-0.179-1.36-0.767c-0.132-0.472,0.064-0.975,0.48-1.234
			l4.905-2.97c0.506-0.315,1.173-0.16,1.488,0.346c0.003,0.006,0.007,0.011,0.01,0.017c0.319,0.512,0.162,1.186-0.35,1.504
			c-0.003,0.002-0.006,0.003-0.009,0.005l-4.9,2.981C228.171,108.213,228.083,108.252,227.991,108.281z"/>
		<path style="fill:#E0E0E0;" d="M218.84,99.52c-0.585,0.172-1.199-0.162-1.371-0.747c-0.082-0.279-0.051-0.58,0.087-0.836
			l2.785-4.971c0.341-0.505,1.028-0.638,1.533-0.297c0.441,0.298,0.607,0.867,0.395,1.355l-2.763,5.027
			C219.354,99.288,219.115,99.456,218.84,99.52z"/>
	</g>
</g>
<g id="Window">
	<g>
		<g>
			<g>
				<g>
					<polygon style="fill:#E0E0E0;" points="313.177,257.865 313.154,249.88 307.789,246.788 307.811,254.588 307.811,254.588 
						307.811,254.765 313.177,257.865 					"/>
					<path style="fill:#BA68C8;" d="M313.439,374.158l-0.262-116.293l-5.365-3.099l0.262,116.116c0.002,0.763,0.27,1.3,0.699,1.563
						l-0.003,0.002l0.022,0.013c0.006,0.003,0.011,0.007,0.017,0.01l5.307,3.232C313.7,375.433,313.441,374.905,313.439,374.158z"/>
					<path style="opacity:0.2;fill:#FFFFFF;" d="M313.439,374.158l-0.262-116.293l-5.365-3.099l0.262,116.116
						c0.002,0.763,0.27,1.3,0.699,1.563l-0.003,0.002l0.022,0.013c0.006,0.003,0.011,0.007,0.017,0.01l5.307,3.232
						C313.7,375.433,313.441,374.905,313.439,374.158z"/>
					<path style="fill:#455A64;" d="M315.913,375.567c-0.164,0.095-0.324,0.167-0.48,0.221
						C315.588,375.735,315.748,375.662,315.913,375.567z"/>
					<path style="fill:#455A64;" d="M315.095,375.867c-0.033,0.006-0.068,0.018-0.101,0.022
						C315.027,375.886,315.062,375.873,315.095,375.867z"/>
					<path style="fill:#455A64;" d="M314.241,375.779v-0.008l0,0c-0.01-0.005-0.022-0.007-0.031-0.012L314.241,375.779z"/>
					<path style="fill:#BA68C8;" d="M313.169,249.865l-0.013-4.6c-0.004-1.567,1.094-3.475,2.458-4.262l139.342-80.449
						c0.67-0.387,1.278-0.426,1.724-0.182l-5.311-3.246v0.005c-0.451-0.28-1.08-0.256-1.779,0.147l-139.342,80.449
						c-1.364,0.788-2.462,2.695-2.458,4.262l0.013,4.6l0.007,0.003l-0.022,0.013l0.001,0.184l5.365,3.092L313.169,249.865z"/>
					<path style="opacity:0.3;fill:#FFFFFF;" d="M313.169,249.865l-0.013-4.6c-0.004-1.567,1.094-3.475,2.458-4.262l139.342-80.449
						c0.67-0.387,1.278-0.426,1.724-0.182l-5.311-3.246v0.005c-0.451-0.28-1.08-0.256-1.779,0.147l-139.342,80.449
						c-1.364,0.788-2.462,2.695-2.458,4.262l0.013,4.6l0.007,0.003l-0.022,0.013l0.001,0.184l5.365,3.092L313.169,249.865z"/>
					<polygon style="opacity:0.2;" points="313.177,257.865 313.154,249.88 307.789,246.788 307.811,254.588 307.811,254.588 
						307.811,254.765 313.177,257.865 					"/>
				</g>
				<g>
					<path style="fill:#BA68C8;" d="M454.957,160.554c1.359-0.785,2.469-0.152,2.474,1.415l0.013,4.6l-144.274,83.297l-0.013-4.6
						c-0.004-1.567,1.094-3.475,2.458-4.262L454.957,160.554z"/>
				</g>
				<g>
					<g>
						<path style="fill:#FFFFFF;" d="M445.616,168.163c0.729-0.421,1.322-0.083,1.324,0.754c0.002,0.837-0.587,1.857-1.315,2.278
							c-0.729,0.421-1.322,0.083-1.324-0.754C444.298,169.604,444.887,168.584,445.616,168.163z"/>
					</g>
					<g>
						<path style="fill:#FFFFFF;" d="M449.641,165.839c0.729-0.421,1.322-0.083,1.324,0.755c0.002,0.837-0.587,1.857-1.315,2.278
							s-1.322,0.083-1.324-0.754C448.324,167.28,448.913,166.26,449.641,165.839z"/>
					</g>
					<g>
						<path style="fill:#FFFFFF;" d="M453.662,163.518c0.729-0.421,1.322-0.083,1.324,0.754c0.002,0.837-0.587,1.857-1.315,2.278
							c-0.729,0.421-1.322,0.083-1.324-0.754C452.345,164.958,452.934,163.938,453.662,163.518z"/>
					</g>
				</g>
				<g>
					<path style="fill:#E0E0E0;" d="M342.185,228.553c0.542-0.313,1.045-0.261,1.304,0.142l1.31,2.016
						c0.259,0.403,0.758,0.463,1.304,0.147l111.325-64.273l0.023,7.995l-144.274,83.297l-0.023-7.995l4.274-2.468
						c0.547-0.315,1.043-0.95,1.304-1.653l1.289-3.516c0.256-0.7,0.757-1.332,1.299-1.645L342.185,228.553z"/>
				</g>
				<g>
					<path style="fill:#BA68C8;" d="M457.451,174.568l0.262,116.293c0.004,1.562-1.098,3.472-2.458,4.257l-139.342,80.449
						c-1.364,0.787-2.469,0.152-2.474-1.41l-0.262-116.293L457.451,174.568z"/>
				</g>
				<g style="opacity:0.4;">
					<path style="fill:#FFFFFF;" d="M457.451,174.568l0.262,116.293c0.004,1.562-1.098,3.472-2.458,4.257l-139.342,80.449
						c-1.364,0.787-2.469,0.152-2.474-1.41l-0.262-116.293L457.451,174.568z"/>
				</g>
				<g>
					<g>
						<path style="fill:#FFFFFF;" d="M451.745,171.495c0.969-0.559,1.753-0.112,1.756,1.001c0.003,1.113-0.776,2.468-1.745,3.027
							l-122.126,70.509c-0.969,0.559-1.758,0.11-1.761-1.003c-0.003-1.113,0.781-2.465,1.749-3.025L451.745,171.495z"/>
					</g>
					<g>
						<path style="fill:#E0E0E0;" d="M315.484,250.59c0.066-0.038,0.132-0.046,0.181-0.012c0.094,0.064,0.085,0.247-0.012,0.411
							l-0.771,1.258l2.022-1.167c0.138-0.079,0.249-0.016,0.25,0.137c0,0.158-0.11,0.35-0.248,0.43l-2.022,1.167l0.775,0.365
							c0.098,0.051,0.108,0.224,0.014,0.391c-0.049,0.089-0.115,0.158-0.182,0.197c-0.058,0.033-0.12,0.049-0.169,0.026
							l-1.239-0.594l-0.049-0.048l-0.009-0.015l-0.022-0.099l0.022-0.125l0.009-0.021l0.044-0.102l1.236-2.023
							C315.363,250.686,315.423,250.625,315.484,250.59z"/>
					</g>
					<g>
						<path style="fill:#E0E0E0;" d="M319.858,248.065c0.06-0.035,0.121-0.044,0.17-0.021l1.239,0.589l0.049,0.053l0.013,0.008
							l0.018,0.102l-0.018,0.122l-0.013,0.028l-0.044,0.097l-1.236,2.028c-0.049,0.079-0.106,0.133-0.169,0.169
							c-0.067,0.038-0.129,0.044-0.178,0.011c-0.094-0.058-0.09-0.24,0.012-0.406l0.766-1.256l-2.022,1.167
							c-0.133,0.077-0.245,0.014-0.245-0.145c-0.001-0.153,0.11-0.345,0.243-0.422l2.022-1.167l-0.771-0.368
							c-0.103-0.048-0.108-0.224-0.015-0.396C319.728,248.171,319.792,248.103,319.858,248.065z"/>
					</g>
					<g>
						<path style="fill:#E0E0E0;" d="M324.013,245.666c0.306-0.177,0.596-0.226,0.836-0.156l0.186-0.246
							c0.04-0.054,0.086-0.096,0.133-0.123c0.047-0.027,0.093-0.038,0.133-0.031c0.085,0.013,0.125,0.102,0.112,0.222l-0.105,0.761
							c-0.009,0.087-0.049,0.176-0.106,0.256c-0.04,0.049-0.089,0.097-0.133,0.123l-0.062,0.026l-0.6,0.168
							c-0.093,0.023-0.165-0.023-0.183-0.125c-0.018-0.102,0.026-0.235,0.11-0.345l0.058-0.079c-0.116,0-0.245,0.039-0.378,0.116
							c-0.489,0.282-0.887,0.973-0.886,1.534c0.002,0.567,0.403,0.79,0.892,0.508c0.324-0.187,0.621-0.558,0.78-0.977
							c0.042-0.119,0.126-0.221,0.214-0.271c0.04-0.023,0.081-0.036,0.119-0.033c0.12,0.007,0.165,0.155,0.099,0.332
							c-0.243,0.646-0.704,1.225-1.211,1.517c-0.76,0.439-1.384,0.088-1.386-0.79C322.633,247.178,323.253,246.104,324.013,245.666z
							"/>
					</g>
					<g style="opacity:0.3;">
						<path d="M315.484,250.59c0.066-0.038,0.132-0.046,0.181-0.012c0.094,0.064,0.085,0.247-0.012,0.411l-0.771,1.258l2.022-1.167
							c0.138-0.079,0.249-0.016,0.25,0.137c0,0.158-0.11,0.35-0.248,0.43l-2.022,1.167l0.775,0.365
							c0.098,0.051,0.108,0.224,0.014,0.391c-0.049,0.089-0.115,0.158-0.182,0.197c-0.058,0.033-0.12,0.049-0.169,0.026
							l-1.239-0.594l-0.049-0.048l-0.009-0.015l-0.022-0.099l0.022-0.125l0.009-0.021l0.044-0.102l1.236-2.023
							C315.363,250.686,315.423,250.625,315.484,250.59z"/>
					</g>
					<g style="opacity:0.3;">
						<path d="M319.858,248.065c0.06-0.035,0.121-0.044,0.17-0.021l1.239,0.589l0.049,0.053l0.013,0.008l0.018,0.102l-0.018,0.122
							l-0.013,0.028l-0.044,0.097l-1.236,2.028c-0.049,0.079-0.106,0.133-0.169,0.169c-0.067,0.038-0.129,0.044-0.178,0.011
							c-0.094-0.058-0.09-0.24,0.012-0.406l0.766-1.256l-2.022,1.167c-0.133,0.077-0.245,0.014-0.245-0.145
							c-0.001-0.153,0.11-0.345,0.243-0.422l2.022-1.167l-0.771-0.368c-0.103-0.048-0.108-0.224-0.015-0.396
							C319.728,248.171,319.792,248.103,319.858,248.065z"/>
					</g>
					<g style="opacity:0.3;">
						<path d="M324.013,245.666c0.306-0.177,0.596-0.226,0.836-0.156l0.186-0.246c0.04-0.054,0.086-0.096,0.133-0.123
							c0.047-0.027,0.093-0.038,0.133-0.031c0.085,0.013,0.125,0.102,0.112,0.222l-0.105,0.761
							c-0.009,0.087-0.049,0.176-0.106,0.256c-0.04,0.049-0.089,0.097-0.133,0.123l-0.062,0.026l-0.6,0.168
							c-0.093,0.023-0.165-0.023-0.183-0.125c-0.018-0.102,0.026-0.235,0.11-0.345l0.058-0.079c-0.116,0-0.245,0.039-0.378,0.116
							c-0.489,0.282-0.887,0.973-0.886,1.534c0.002,0.567,0.403,0.79,0.892,0.508c0.324-0.187,0.621-0.558,0.78-0.977
							c0.042-0.119,0.126-0.221,0.214-0.271c0.04-0.023,0.081-0.036,0.119-0.033c0.12,0.007,0.165,0.155,0.099,0.332
							c-0.243,0.646-0.704,1.225-1.211,1.517c-0.76,0.439-1.384,0.088-1.386-0.79C322.633,247.178,323.253,246.104,324.013,245.666z
							"/>
					</g>
				</g>
			</g>
		</g>
		<g>
			<g>
				<polygon style="fill:#FFFFFF;" points="397.628,238.896 397.851,317.716 321.743,361.657 321.52,282.837 				"/>
			</g>
			<g>
				<g>
					<polygon style="fill:#BA68C8;" points="387.039,261.779 352.759,316.297 352.813,329.807 359.408,316.698 352.813,329.807 
						347.854,316.005 					"/>
					<polygon style="opacity:0.3;" points="387.039,261.779 352.759,316.297 352.813,329.807 359.408,316.698 352.813,329.807 
						347.854,316.005 					"/>
					<polygon style="fill:#BA68C8;" points="352.759,316.297 359.408,316.698 352.813,329.807 					"/>
					<polygon style="opacity:0.5;" points="352.759,316.297 359.408,316.698 352.813,329.807 					"/>
					<polygon style="fill:#BA68C8;" points="387.039,261.779 347.854,316.005 331.468,315.015 					"/>
					<polygon style="fill:#BA68C8;" points="352.759,316.297 387.039,261.779 379.873,317.933 359.408,316.698 					"/>
				</g>
				<polygon style="opacity:0.3;fill:#FFFFFF;" points="331.468,315.015 347.854,316.005 352.813,329.807 359.408,316.698 
					359.408,316.698 379.872,317.933 387.039,261.779 				"/>
			</g>
		</g>
		<g>
			<path style="fill:#BA68C8;" d="M450.867,181.784c1.389-0.802,2.518-0.159,2.522,1.438c0.004,1.597-1.117,3.538-2.506,4.341
				l-109.366,63.185c-1.389,0.802-2.522,0.161-2.526-1.436s1.12-3.541,2.51-4.343L450.867,181.784z"/>
		</g>
		<g style="opacity:0.7;">
			<path style="fill:#FFFFFF;" d="M450.867,181.784c1.389-0.802,2.518-0.159,2.522,1.438c0.004,1.597-1.117,3.538-2.506,4.341
				l-109.366,63.185c-1.389,0.802-2.522,0.161-2.526-1.436s1.12-3.541,2.51-4.343L450.867,181.784z"/>
		</g>
		<g>
			<path style="fill:#BA68C8;" d="M333.59,249.379c1.389-0.802,2.518-0.159,2.522,1.438c0.005,1.597-1.117,3.539-2.506,4.341
				l-9.733,5.757c-1.389,0.802-2.522,0.161-2.526-1.435c-0.005-1.597,1.12-3.541,2.51-4.343L333.59,249.379z"/>
		</g>
		<g>
			<g>
				<g>
					<path style="fill:#BA68C8;" d="M342.579,255.102c1.389-0.802,2.518-0.159,2.523,1.438c0.004,1.597-1.117,3.538-2.506,4.341
						l-18.958,11.065c-1.389,0.802-2.521,0.161-2.526-1.436c-0.005-1.597,1.12-3.54,2.51-4.343L342.579,255.102z"/>
				</g>
				<g>
					<path style="fill:#BA68C8;" d="M369.829,239.241c1.389-0.802,2.518-0.159,2.523,1.437c0.004,1.597-1.117,3.539-2.506,4.341
						l-18.958,11.065c-1.389,0.802-2.521,0.161-2.526-1.435c-0.005-1.597,1.12-3.541,2.51-4.343L369.829,239.241z"/>
				</g>
				<g>
					<path style="fill:#BA68C8;" d="M397.079,223.381c1.389-0.802,2.518-0.159,2.523,1.438c0.004,1.597-1.117,3.538-2.506,4.341
						l-18.958,11.065c-1.389,0.802-2.521,0.161-2.526-1.436c-0.005-1.597,1.12-3.541,2.51-4.343L397.079,223.381z"/>
				</g>
				<g>
					<path style="fill:#BA68C8;" d="M424.329,207.52c1.389-0.802,2.518-0.159,2.522,1.437c0.005,1.597-1.117,3.539-2.506,4.341
						l-18.958,11.065c-1.389,0.802-2.521,0.161-2.526-1.435c-0.005-1.597,1.12-3.541,2.51-4.343L424.329,207.52z"/>
				</g>
				<g>
					<path style="fill:#BA68C8;" d="M451.579,191.66c1.389-0.802,2.518-0.159,2.522,1.438c0.005,1.597-1.117,3.538-2.506,4.341
						l-18.958,11.065c-1.389,0.802-2.521,0.161-2.526-1.436c-0.005-1.597,1.12-3.54,2.51-4.343L451.579,191.66z"/>
				</g>
			</g>
			<g style="opacity:0.2;">
				<g>
					<path style="fill:#FFFFFF;" d="M342.579,255.102c1.389-0.802,2.518-0.159,2.523,1.438c0.004,1.597-1.117,3.538-2.506,4.341
						l-18.958,11.065c-1.389,0.802-2.521,0.161-2.526-1.436c-0.005-1.597,1.12-3.54,2.51-4.343L342.579,255.102z"/>
				</g>
				<g>
					<path style="fill:#FFFFFF;" d="M369.829,239.241c1.389-0.802,2.518-0.159,2.523,1.437c0.004,1.597-1.117,3.539-2.506,4.341
						l-18.958,11.065c-1.389,0.802-2.521,0.161-2.526-1.435c-0.005-1.597,1.12-3.541,2.51-4.343L369.829,239.241z"/>
				</g>
				<g>
					<path style="fill:#FFFFFF;" d="M397.079,223.381c1.389-0.802,2.518-0.159,2.523,1.438c0.004,1.597-1.117,3.538-2.506,4.341
						l-18.958,11.065c-1.389,0.802-2.521,0.161-2.526-1.436c-0.005-1.597,1.12-3.541,2.51-4.343L397.079,223.381z"/>
				</g>
				<g>
					<path style="fill:#FFFFFF;" d="M424.329,207.52c1.389-0.802,2.518-0.159,2.522,1.437c0.005,1.597-1.117,3.539-2.506,4.341
						l-18.958,11.065c-1.389,0.802-2.521,0.161-2.526-1.435c-0.005-1.597,1.12-3.541,2.51-4.343L424.329,207.52z"/>
				</g>
				<g>
					<path style="fill:#FFFFFF;" d="M451.579,191.66c1.389-0.802,2.518-0.159,2.522,1.438c0.005,1.597-1.117,3.538-2.506,4.341
						l-18.958,11.065c-1.389,0.802-2.521,0.161-2.526-1.436c-0.005-1.597,1.12-3.54,2.51-4.343L451.579,191.66z"/>
				</g>
			</g>
		</g>
		<g>
			<g>
				<g>
					<polygon style="fill:#BA68C8;" points="433.149,219.687 433.163,224.581 406.058,240.273 406.044,235.38 					"/>
				</g>
				<g style="enable-background:new    ;">
					<g>
						<polygon style="fill:#BA68C8;" points="434.064,244.878 434.073,247.872 406.125,264.182 406.117,261.189 						"/>
					</g>
					<g>
						<polygon style="fill:#BA68C8;" points="439.919,235.755 439.927,238.741 406.108,258.203 406.1,255.217 						"/>
					</g>
					<g>
						<polygon style="fill:#BA68C8;" points="421.904,240.104 421.913,243.09 406.092,252.224 406.083,249.238 						"/>
					</g>
				</g>
				<g>
					<polygon style="fill:#BA68C8;" points="439.885,223.797 439.893,226.783 406.075,246.245 406.066,243.259 					"/>
				</g>
			</g>
			<g style="opacity:0.1;">
				<g>
					<polygon style="fill:#FFFFFF;" points="433.149,219.687 433.163,224.581 406.058,240.273 406.044,235.38 					"/>
				</g>
				<g style="enable-background:new    ;">
					<g>
						<polygon style="fill:#FFFFFF;" points="434.064,244.878 434.073,247.872 406.125,264.182 406.117,261.189 						"/>
					</g>
					<g>
						<polygon style="fill:#FFFFFF;" points="439.919,235.755 439.927,238.741 406.108,258.203 406.1,255.217 						"/>
					</g>
					<g>
						<polygon style="fill:#FFFFFF;" points="421.904,240.104 421.913,243.09 406.092,252.224 406.083,249.238 						"/>
					</g>
				</g>
				<g>
					<polygon style="fill:#FFFFFF;" points="439.885,223.797 439.893,226.783 406.075,246.245 406.066,243.259 					"/>
				</g>
			</g>
		</g>
		<g>
			<g>
				<g>
					<polygon style="fill:#BA68C8;" points="438.486,280.057 438.494,283.159 407.055,301.418 407.047,298.316 					"/>
				</g>
				<g>
					<polygon style="fill:#BA68C8;" points="452.65,266.172 452.658,269.266 407.04,295.793 407.031,292.699 					"/>
				</g>
			</g>
			<g style="opacity:0.1;">
				<g>
					<polygon style="fill:#FFFFFF;" points="438.486,280.057 438.494,283.159 407.055,301.418 407.047,298.316 					"/>
				</g>
				<g>
					<polygon style="fill:#FFFFFF;" points="452.65,266.172 452.658,269.266 407.04,295.793 407.031,292.699 					"/>
				</g>
			</g>
		</g>
	</g>
</g>
<g id="Icon">
	<g>
		<g>
			<g>
				<g>
					<path style="fill:#BA68C8;" d="M144.373,79.348l0.003-0.002c-0.26-0.913-2.113-2.648-3.957-2.612
						c-0.067-0.001-0.398,0.033-0.518,0.102l-63.794,36.87c-0.609,0.346-1.079,0.867-1.377,1.475
						c-0.226,0.461-0.355,0.972-0.355,1.503v52.757c0,1.974,2.276,3.857,4.413,2.951c0.005-0.002,0.009-0.008,0.014-0.01
						c0.046-0.017,0.092-0.03,0.137-0.055l63.795-36.903c1.07-0.609,1.73-1.746,1.73-2.977V79.722
						C144.465,79.584,144.428,79.46,144.373,79.348z"/>
					<path style="opacity:0.2;fill:#FFFFFF;" d="M74.375,116.684v52.757c0,1.974,2.276,3.857,4.413,2.951
						c0.005-0.002,0.009-0.008,0.014-0.01c-0.542,0.196-1.143-0.194-1.143-0.8v-52.757c0-0.687,0.211-1.34,0.579-1.892l-3.507-1.752
						C74.504,115.642,74.375,116.152,74.375,116.684z"/>
					<path style="opacity:0.4;fill:#FFFFFF;" d="M140.419,76.734c-0.067-0.001-0.398,0.033-0.518,0.102l-63.794,36.87
						c-0.609,0.346-1.079,0.867-1.377,1.475l3.507,1.752c0.292-0.439,0.679-0.816,1.154-1.086l63.794-36.87
						c0.451-0.257,0.983-0.05,1.189,0.371l0.003-0.002C144.116,78.433,142.263,76.698,140.419,76.734z"/>
				</g>
				<path style="opacity:0.3;fill:#FFFFFF;" d="M144.373,79.348l0.003-0.002c-0.26-0.913-2.113-2.648-3.957-2.612
					c-0.067-0.001-0.398,0.033-0.518,0.102l-63.794,36.869c-0.609,0.346-1.079,0.867-1.377,1.475
					c-0.226,0.461-0.355,0.972-0.355,1.503v52.757c0,1.974,2.276,3.857,4.413,2.951c0.006-0.002,0.009-0.008,0.015-0.01
					c0.046-0.017,0.092-0.03,0.137-0.055l63.795-36.903c1.07-0.609,1.73-1.746,1.73-2.977V79.722
					C144.465,79.584,144.428,79.46,144.373,79.348z"/>
			</g>
		</g>
		<g style="opacity:0.6;">
			<polygon style="fill:#FFFFFF;" points="102.024,116.724 123.754,118.593 102.105,145.505 			"/>
		</g>
	</g>
</g>
<g id="Pictures">
	<g>
		<path style="fill:#BA68C8;" d="M104.409,229.211c0.186-0.107,0.341-0.193,0.495-0.275c0.165-0.088,0.329-0.171,0.493-0.251
			l0.021,7.565c-7.255,4.142-14.509,8.279-21.76,12.419c-8.194,4.674-16.384,9.346-24.578,14.02l-0.018-6.368
			c0.042-0.042,0.084-0.085,0.126-0.126c0.166-0.165,0.333-0.326,0.502-0.482c1.12-1.039,2.301-1.901,3.492-2.601
			c0.046-0.027,0.091-0.053,0.137-0.08c0.07-0.041,0.14-0.081,0.211-0.12c0.82-0.46,1.643-0.845,2.452-1.158
			c0.23-0.089,0.459-0.173,0.687-0.251c3.07-1.047,5.951-1.196,8.875-1.582c0.287-0.038,0.575-0.078,0.864-0.121
			c2.346-0.354,4.773-0.94,7.246-2.259c0.185-0.099,0.371-0.202,0.556-0.309c0.154-0.089,0.307-0.18,0.459-0.274
			c4.163-2.569,7.99-7.094,11.854-11.111c0.195-0.203,0.391-0.405,0.589-0.606c0.094-0.095,0.188-0.191,0.282-0.286
			c0.177-0.178,0.355-0.355,0.534-0.532c0.088-0.087,0.177-0.174,0.266-0.26c1.938-1.885,3.971-3.612,5.965-4.806
			C104.243,229.307,104.326,229.258,104.409,229.211z"/>
		<path style="opacity:0.4;" d="M104.409,229.211c0.186-0.107,0.341-0.193,0.495-0.275c0.165-0.088,0.329-0.171,0.493-0.251
			l0.021,7.565c-7.255,4.142-14.509,8.279-21.76,12.419c-8.194,4.674-16.384,9.346-24.578,14.02l-0.018-6.368
			c0.042-0.042,0.084-0.085,0.126-0.126c0.166-0.165,0.333-0.326,0.502-0.482c1.12-1.039,2.301-1.901,3.492-2.601
			c0.046-0.027,0.091-0.053,0.137-0.08c0.07-0.041,0.14-0.081,0.211-0.12c0.82-0.46,1.643-0.845,2.452-1.158
			c0.23-0.089,0.459-0.173,0.687-0.251c3.07-1.047,5.951-1.196,8.875-1.582c0.287-0.038,0.575-0.078,0.864-0.121
			c2.346-0.354,4.773-0.94,7.246-2.259c0.185-0.099,0.371-0.202,0.556-0.309c0.154-0.089,0.307-0.18,0.459-0.274
			c4.163-2.569,7.99-7.094,11.854-11.111c0.195-0.203,0.391-0.405,0.589-0.606c0.094-0.095,0.188-0.191,0.282-0.286
			c0.177-0.178,0.355-0.355,0.534-0.532c0.088-0.087,0.177-0.174,0.266-0.26c1.938-1.885,3.971-3.612,5.965-4.806
			C104.243,229.307,104.326,229.258,104.409,229.211z"/>
		<path style="fill:#FFFFFF;" d="M78.58,227.164c2.692-1.555,4.882-0.307,4.891,2.792c0.009,3.094-2.167,6.862-4.859,8.417
			c-2.697,1.557-4.887,0.309-4.896-2.785C73.708,232.49,75.883,228.721,78.58,227.164z"/>
		<g>
			<path style="fill:#5D3464;" d="M83.655,247.54c-2.473,1.319-4.901,1.905-7.246,2.259
				C78.754,249.445,81.183,248.859,83.655,247.54z"/>
		</g>
		<g>
			<path style="fill:#BA68C8;" d="M63.752,243.453c0.37-0.214,0.74-0.385,1.106-0.505c1.173-0.378,2.208-0.204,3.216-0.03
				c2.084,0.362,4.164,0.721,6.244,1.085c1.015,0.177,2.177-0.113,3.339-0.784c1.112-0.642,2.225-1.633,3.209-2.899
				c1.176-1.514,2.357-2.944,3.616-3.671c0.045-0.026,0.091-0.051,0.136-0.076c1.109-0.594,2.068-0.525,3.001-0.332
				c1.012,0.211,2.184-0.075,3.358-0.753c1.213-0.701,2.428-1.821,3.467-3.245c1.187-1.622,2.383-3.255,3.481-4.836
				c0.892-1.282,1.825-2.608,2.916-3.485c0.254-0.203,0.506-0.374,0.755-0.518c1.301-0.751,2.54-0.762,3.785-0.729l0.017,6.008
				c-0.164,0.079-0.328,0.163-0.493,0.251c-0.154,0.082-0.309,0.168-0.464,0.257c-0.114,0.066-0.197,0.115-0.28,0.164
				c-1.994,1.194-4.027,2.921-5.965,4.806c-0.089,0.086-0.178,0.173-0.266,0.26c-0.179,0.176-0.357,0.353-0.534,0.532
				c-0.094,0.095-0.188,0.19-0.282,0.286c-0.198,0.201-0.394,0.403-0.589,0.606c-3.864,4.017-7.69,8.543-11.854,11.111
				c-0.152,0.094-0.305,0.185-0.457,0.273c-0.188,0.108-0.373,0.211-0.558,0.31c-2.473,1.319-4.901,1.905-7.246,2.259
				c-0.289,0.044-0.577,0.084-0.864,0.121c-2.924,0.386-5.805,0.535-8.875,1.582c-0.227,0.078-0.457,0.162-0.687,0.251
				c-0.809,0.313-1.631,0.698-2.452,1.158c-0.07,0.039-0.141,0.079-0.211,0.12c-0.046,0.026-0.091,0.053-0.137,0.08
				c-1.191,0.7-2.372,1.562-3.492,2.601c-0.169,0.157-0.336,0.317-0.502,0.482c-0.042,0.042-0.084,0.084-0.126,0.126l-0.023-8.115
				c0.419-0.592,0.848-1.164,1.299-1.702C61.386,245.249,62.571,244.135,63.752,243.453z"/>
		</g>
		<g style="opacity:0.2;">
			<path d="M63.752,243.453c0.37-0.214,0.74-0.385,1.106-0.505c1.173-0.378,2.208-0.204,3.216-0.03
				c2.084,0.362,4.164,0.721,6.244,1.085c1.015,0.177,2.177-0.113,3.339-0.784c1.112-0.642,2.225-1.633,3.209-2.899
				c1.176-1.514,2.357-2.944,3.616-3.671c0.045-0.026,0.091-0.051,0.136-0.076c1.109-0.594,2.068-0.525,3.001-0.332
				c1.012,0.211,2.184-0.075,3.358-0.753c1.213-0.701,2.428-1.821,3.467-3.245c1.187-1.622,2.383-3.255,3.481-4.836
				c0.892-1.282,1.825-2.608,2.916-3.485c0.254-0.203,0.506-0.374,0.755-0.518c1.301-0.751,2.54-0.762,3.785-0.729l0.017,6.008
				c-0.164,0.079-0.328,0.163-0.493,0.251c-0.154,0.082-0.309,0.168-0.464,0.257c-0.114,0.066-0.197,0.115-0.28,0.164
				c-1.994,1.194-4.027,2.921-5.965,4.806c-0.089,0.086-0.178,0.173-0.266,0.26c-0.179,0.176-0.357,0.353-0.534,0.532
				c-0.094,0.095-0.188,0.19-0.282,0.286c-0.198,0.201-0.394,0.403-0.589,0.606c-3.864,4.017-7.69,8.543-11.854,11.111
				c-0.152,0.094-0.305,0.185-0.457,0.273c-0.188,0.108-0.373,0.211-0.558,0.31c-2.473,1.319-4.901,1.905-7.246,2.259
				c-0.289,0.044-0.577,0.084-0.864,0.121c-2.924,0.386-5.805,0.535-8.875,1.582c-0.227,0.078-0.457,0.162-0.687,0.251
				c-0.809,0.313-1.631,0.698-2.452,1.158c-0.07,0.039-0.141,0.079-0.211,0.12c-0.046,0.026-0.091,0.053-0.137,0.08
				c-1.191,0.7-2.372,1.562-3.492,2.601c-0.169,0.157-0.336,0.317-0.502,0.482c-0.042,0.042-0.084,0.084-0.126,0.126l-0.023-8.115
				c0.419-0.592,0.848-1.164,1.299-1.702C61.386,245.249,62.571,244.135,63.752,243.453z"/>
		</g>
		<g>
			<path style="fill:#BA68C8;" d="M55.017,232.383l54.28-31.339l0.123,43.33l-54.28,31.339L55.017,232.383z M105.38,222.677
				l-0.042-14.771l-46.337,26.753l0.097,34.198l46.337-26.752l-0.017-5.854l-0.021-7.565L105.38,222.677"/>
		</g>
		<g style="opacity:0.6;">
			<path style="fill:#FFFFFF;" d="M55.017,232.383l54.28-31.339l0.123,43.33l-54.28,31.339L55.017,232.383z M105.38,222.677
				l-0.042-14.771l-46.337,26.753l0.097,34.198l46.337-26.752l-0.017-5.854l-0.021-7.565L105.38,222.677"/>
		</g>
		<g>
			<path style="fill:#455A64;" d="M59.081,262.689c8.194-4.674,16.384-9.346,24.578-14.02c7.25-4.14,14.505-8.277,21.76-12.419
				l0.017,5.854l-46.337,26.752L59.081,262.689z"/>
		</g>
		<g>
			<path style="fill:#BA68C8;" d="M59.002,234.659l46.336-26.752l0.042,14.771c-1.245-0.033-2.483-0.023-3.785,0.729
				c-0.249,0.144-0.5,0.315-0.755,0.518c-1.091,0.877-2.023,2.203-2.916,3.485c-1.098,1.581-2.294,3.213-3.481,4.836
				c-1.039,1.424-2.254,2.544-3.467,3.245c-1.174,0.678-2.346,0.963-3.358,0.753c-0.932-0.193-1.891-0.262-3.001,0.332
				c-0.045,0.024-0.091,0.049-0.136,0.076c-1.259,0.727-2.44,2.157-3.616,3.671c-0.984,1.266-2.097,2.257-3.209,2.899
				c-1.162,0.671-2.324,0.961-3.339,0.784c-2.08-0.364-4.16-0.723-6.244-1.085c-1.008-0.174-2.044-0.349-3.216,0.03
				c-0.365,0.12-0.736,0.292-1.106,0.505c-1.181,0.682-2.366,1.796-3.413,3.051c-0.451,0.538-0.879,1.11-1.299,1.702L59.002,234.659
				z M78.612,238.373c2.693-1.555,4.868-5.323,4.859-8.417c-0.009-3.099-2.199-4.347-4.891-2.792
				c-2.697,1.557-4.873,5.325-4.864,8.424C73.725,238.683,75.915,239.93,78.612,238.373"/>
		</g>
		<path style="fill:#5D3464;" d="M65.983,251.753c-0.808,0.314-1.631,0.698-2.452,1.158
			C64.352,252.451,65.174,252.067,65.983,251.753z"/>
	</g>
	<g>
		<path style="fill:#BA68C8;" d="M330.215,149.966l60.201-34.757l0.175,61.854L330.39,211.82L330.215,149.966z M384.897,173.818
			l-0.138-48.809l-48.849,28.203l0.138,48.809L384.897,173.818"/>
		<path style="opacity:0.6;fill:#FFFFFF;" d="M330.215,149.966l60.201-34.757l0.175,61.854L330.39,211.82L330.215,149.966z
			 M384.897,173.818l-0.138-48.809l-48.849,28.203l0.138,48.809L384.897,173.818"/>
		<g>
			<polygon style="fill:#FAFAFA;" points="360.749,144.323 374.911,145.538 360.158,163.946 345.996,162.732 			"/>
		</g>
		<g>
			<polygon style="fill:#EBEBEB;" points="374.911,145.538 374.919,164.235 360.16,182.647 360.158,163.946 			"/>
		</g>
		<g>
			<polygon style="fill:#E0E0E0;" points="345.996,162.732 360.158,163.946 360.16,182.647 345.998,181.432 			"/>
		</g>
		<g>
			<path style="fill:#BA68C8;" d="M335.909,153.212l48.849-28.203l0.138,48.809l-48.849,28.203L335.909,153.212z M374.919,164.235
				l-0.008-18.697l-14.162-1.215l-14.753,18.408l0.002,18.701l14.162,1.215L374.919,164.235"/>
		</g>
		<g style="opacity:0.2;">
			<path style="fill:#FFFFFF;" d="M335.909,153.212l48.849-28.203l0.138,48.809l-48.849,28.203L335.909,153.212z M374.919,164.235
				l-0.008-18.697l-14.162-1.215l-14.753,18.408l0.002,18.701l14.162,1.215L374.919,164.235"/>
		</g>
	</g>
	<g>
		<g>
			<path style="fill:#BA68C8;" d="M385.993,90.966l27.65-15.964l0.118,41.723l-27.65,15.964L385.993,90.966z M403.808,109.013
				l0.02-0.16c0.183-1.502,0.761-3.132,1.664-4.61c1.649-2.698,2.681-5.799,2.673-8.583c-0.015-5.252-3.725-7.381-8.296-4.761
				c-4.583,2.646-8.315,9.104-8.3,14.343c0.008,2.765,1.037,4.657,2.675,5.457c0.904,0.444,1.523,1.359,1.714,2.65l0.03,0.179
				c0.085,0.582,0.315,1.047,0.666,1.347l0.003,1.136l0.474-0.274l0.001,0.387l-0.474,0.273l0.003,1.136l0.474-0.273l0.001,0.387
				l-0.474,0.273l0.003,1.136l0.474-0.273l0.002,0.721l0.038,0.26c0.14,1.081,1.007,1.446,2.025,0.859l-0.1,0.058l0.013,0.079
				c0.043,0.315,0.297,0.427,0.596,0.254l0.424-0.245c0.299-0.173,0.552-0.577,0.592-0.94l0.012-0.093l-0.1,0.058
				c1.018-0.588,1.88-1.951,2.014-3.19l0.037-0.303l-0.002-0.721l0.474-0.273l-0.003-1.136l-0.474,0.273l-0.001-0.387l0.474-0.273
				l-0.003-1.136l-0.474,0.273l-0.001-0.387l0.474-0.273l-0.003-1.136C403.5,110.42,403.727,109.691,403.808,109.013
				 M404.448,88.179c-0.058,0.153-0.024,0.291,0.084,0.301l0.112-0.027c0.079-0.046,0.154-0.136,0.195-0.242l1.735-4.488
				c0.062-0.155,0.024-0.291-0.08-0.303c-0.036-0.003-0.075,0.008-0.113,0.03c-0.078,0.045-0.153,0.134-0.194,0.238L404.448,88.179
				 M393.165,91.116c-0.104,0.132-0.141,0.311-0.078,0.394l1.755,2.473c0.042,0.057,0.117,0.062,0.196,0.016l0.112-0.103
				c0.108-0.134,0.141-0.311,0.082-0.397l-1.759-2.471c-0.042-0.056-0.117-0.058-0.195-0.013
				C393.239,91.038,393.201,91.072,393.165,91.116 M406.57,109.944c0.104-0.132,0.141-0.311,0.078-0.399l-1.755-2.468
				c-0.042-0.059-0.118-0.062-0.196-0.017c-0.038,0.022-0.077,0.055-0.112,0.099c-0.108,0.134-0.141,0.311-0.082,0.401l1.759,2.466
				c0.042,0.057,0.117,0.062,0.196,0.016L406.57,109.944 M395.287,112.881c0.058-0.158,0.024-0.296-0.084-0.305
				c-0.036-0.003-0.074,0.008-0.112,0.03c-0.078,0.045-0.153,0.135-0.195,0.243l-1.735,4.484c-0.062,0.16-0.024,0.296,0.08,0.308
				l0.112-0.031c0.079-0.046,0.154-0.137,0.195-0.242L395.287,112.881 M391.673,111.012c0.108-0.134,0.145-0.313,0.082-0.401
				c-0.042-0.058-0.116-0.06-0.192-0.016c-0.039,0.023-0.079,0.057-0.116,0.103l-3.019,3.752c-0.104,0.132-0.141,0.311-0.078,0.399
				c0.042,0.057,0.117,0.062,0.192,0.019l0.112-0.103L391.673,111.012 M411.429,101.524c0.062-0.16,0.028-0.299-0.08-0.308
				l-3.031-0.259c-0.037-0.003-0.077,0.008-0.116,0.031c-0.077,0.044-0.151,0.131-0.191,0.237c-0.062,0.16-0.024,0.296,0.084,0.305
				l3.031,0.259l0.112-0.027C411.313,101.72,411.387,101.629,411.429,101.524 M408.062,90.043c-0.108,0.134-0.145,0.313-0.082,0.401
				c0.042,0.057,0.117,0.062,0.196,0.016l0.112-0.098l3.019-3.757c0.108-0.134,0.141-0.311,0.078-0.394
				c-0.042-0.059-0.118-0.062-0.194-0.018c-0.037,0.022-0.075,0.054-0.109,0.098L408.062,90.043 M388.306,99.536
				c-0.062,0.155-0.024,0.291,0.08,0.303l3.031,0.264l0.112-0.031c0.079-0.046,0.154-0.136,0.195-0.242
				c0.062-0.16,0.024-0.296-0.084-0.305l-3.031-0.259c-0.034-0.004-0.072,0.007-0.109,0.028
				C388.424,99.338,388.348,99.428,388.306,99.536 M399.601,85.602l0.011,4.016c0,0.143,0.1,0.2,0.225,0.128
				c0.125-0.072,0.224-0.244,0.224-0.387l-0.011-4.016c0-0.143-0.1-0.2-0.225-0.128C399.7,85.286,399.6,85.459,399.601,85.602
				 M412.97,93.221c0.125-0.072,0.224-0.244,0.224-0.387c0-0.143-0.1-0.2-0.225-0.128l-3.495,2.018
				c-0.121,0.07-0.224,0.244-0.224,0.387c0,0.143,0.105,0.198,0.225,0.128L412.97,93.221 M386.541,108.221
				c0,0.143,0.1,0.2,0.225,0.128l3.495-2.018c0.12-0.07,0.224-0.244,0.224-0.387c-0.001-0.143-0.105-0.198-0.225-0.128l-3.495,2.018
				C386.64,107.906,386.541,108.078,386.541,108.221"/>
		</g>
		<g>
			<path style="fill:#37474F;" d="M400.742,119.737l-0.012,0.093c-0.041,0.363-0.293,0.767-0.593,0.94l-0.424,0.245
				c-0.299,0.173-0.553,0.061-0.596-0.254l-0.013-0.079l0.1-0.058l1.438-0.83L400.742,119.737z"/>
		</g>
		<g>
			<path style="fill:#455A64;" d="M402.693,116.3l-0.037,0.303c-0.134,1.239-0.996,2.603-2.014,3.19l-1.438,0.83
				c-1.018,0.588-1.885,0.223-2.025-0.858l-0.038-0.26L402.693,116.3z"/>
		</g>
		<g>
			<polygon style="fill:#37474F;" points="397.136,117.648 397.135,117.261 402.686,114.056 402.688,114.443 			"/>
		</g>
		<g>
			<polygon style="fill:#455A64;" points="403.157,112.646 403.16,113.783 402.686,114.056 397.135,117.261 396.661,117.535 
				396.658,116.398 397.132,116.125 402.683,112.92 			"/>
		</g>
		<g>
			<path style="fill:#FFFFFF;" d="M402.558,99.481c0.465-0.269,0.845-0.052,0.846,0.478l0.012,4.135
				c0.001,0.463-0.155,0.994-0.441,1.489l-0.675,1.169c-0.224,0.383-0.343,0.791-0.342,1.154l0.011,3.901l-0.337,0.194l-0.011-3.901
				c-0.001-0.463,0.155-0.994,0.437-1.481l0.679-1.176c0.22-0.38,0.343-0.791,0.342-1.154l-0.012-4.135
				c-0.001-0.315-0.23-0.446-0.509-0.285c-0.278,0.161-0.502,0.553-0.501,0.868l0.011,3.767c0.002,0.535-0.375,1.188-0.837,1.454
				c-0.465,0.269-0.845,0.053-0.846-0.482l-0.011-3.767c-0.001-0.315-0.226-0.448-0.505-0.288c-0.278,0.161-0.502,0.553-0.501,0.868
				l0.011,3.767c0.001,0.535-0.375,1.188-0.841,1.456c-0.461,0.266-0.841,0.05-0.842-0.485l-0.011-3.767
				c-0.001-0.315-0.226-0.448-0.504-0.287c-0.278,0.161-0.506,0.555-0.505,0.87l0.012,4.135c0.001,0.363,0.127,0.63,0.348,0.756
				l0.684,0.39c0.284,0.161,0.443,0.51,0.444,0.973l0.011,3.901l-0.337,0.194l-0.011-3.901c-0.001-0.363-0.122-0.632-0.348-0.756
				l-0.68-0.387c-0.288-0.164-0.443-0.514-0.444-0.978l-0.012-4.135c-0.002-0.53,0.371-1.18,0.837-1.449
				c0.461-0.266,0.841-0.05,0.842,0.48l0.011,3.767c0.001,0.32,0.226,0.453,0.504,0.292c0.279-0.161,0.506-0.555,0.505-0.875
				l-0.011-3.767c-0.001-0.53,0.371-1.18,0.837-1.449c0.465-0.269,0.841-0.05,0.842,0.48l0.011,3.767
				c0.001,0.32,0.23,0.451,0.509,0.29c0.278-0.161,0.502-0.553,0.501-0.873l-0.011-3.767
				C401.719,100.4,402.096,99.748,402.558,99.481z"/>
		</g>
		<g>
			<path style="fill:#BA68C8;" d="M417.325,68.625l-35.038,20.229l0.142,50.212l35.038-20.229L417.325,68.625z M386.111,132.689
				l-0.118-41.722l27.65-15.964l0.118,41.723L386.111,132.689"/>
		</g>
		<g style="opacity:0.6;">
			<path style="fill:#FFFFFF;" d="M417.325,68.625l-35.038,20.229l0.142,50.212l35.038-20.229L417.325,68.625z M386.111,132.689
				l-0.118-41.722l27.65-15.964l0.118,41.723L386.111,132.689"/>
		</g>
		<g>
			<polygon style="fill:#37474F;" points="397.141,119.506 397.139,118.785 402.691,115.579 402.693,116.3 			"/>
		</g>
		<g>
			<polygon style="fill:#455A64;" points="403.161,114.17 403.164,115.306 402.691,115.579 397.139,118.785 396.665,119.058 
				396.662,117.922 397.136,117.648 402.688,114.443 			"/>
		</g>
		<g>
			<polygon style="fill:#37474F;" points="397.13,115.738 402.682,112.533 402.683,112.92 397.132,116.125 			"/>
		</g>
		<g>
			<g>
				<path style="fill:#BA68C8;" d="M399.847,90.912c4.594-2.633,8.304-0.504,8.319,4.748c0.008,2.784-1.024,5.885-2.673,8.583
					c-0.903,1.478-1.481,3.108-1.664,4.61l-0.02,0.16c-0.081,0.678-0.308,1.407-0.656,2.11l-1.184,0.684l-0.011-3.901
					c-0.001-0.363,0.118-0.771,0.342-1.154l0.675-1.169c0.286-0.495,0.442-1.025,0.441-1.489l-0.012-4.135
					c-0.001-0.53-0.381-0.746-0.846-0.478c-0.461,0.266-0.838,0.919-0.837,1.449l0.011,3.767c0.001,0.32-0.223,0.712-0.501,0.873
					c-0.278,0.161-0.508,0.03-0.509-0.29l-0.011-3.767c-0.001-0.53-0.377-0.749-0.842-0.48c-0.465,0.269-0.838,0.919-0.837,1.449
					l0.011,3.767c0.001,0.32-0.227,0.715-0.505,0.875c-0.278,0.161-0.503,0.028-0.504-0.292l-0.011-3.767
					c-0.002-0.53-0.381-0.746-0.842-0.48c-0.465,0.269-0.838,0.919-0.837,1.449l0.012,4.135c0.001,0.463,0.156,0.814,0.444,0.978
					l0.68,0.387c0.225,0.124,0.346,0.393,0.348,0.756l0.011,3.901l-1.184,0.684c-0.35-0.3-0.581-0.765-0.666-1.347l-0.03-0.179
					c-0.191-1.291-0.81-2.206-1.714-2.65c-1.638-0.8-2.667-2.693-2.675-5.457C391.554,100.003,395.286,93.545,399.847,90.912z"/>
			</g>
			<g>
				<path style="fill:#BA68C8;" d="M402.058,106.619c-0.282,0.488-0.438,1.018-0.437,1.481l0.011,3.901l-3.457,1.996l-0.011-3.901
					c-0.001-0.463-0.16-0.811-0.444-0.973l-0.684-0.39c-0.221-0.126-0.347-0.393-0.348-0.756l-0.012-4.135
					c-0.001-0.315,0.227-0.71,0.505-0.87c0.278-0.161,0.503-0.028,0.504,0.287l0.011,3.767c0.002,0.535,0.381,0.751,0.842,0.485
					c0.465-0.269,0.842-0.922,0.841-1.456l-0.011-3.767c-0.001-0.315,0.223-0.707,0.501-0.868c0.278-0.161,0.504-0.028,0.504,0.287
					l0.011,3.767c0.001,0.535,0.381,0.751,0.846,0.482c0.461-0.266,0.838-0.919,0.837-1.454l-0.011-3.767
					c-0.001-0.315,0.223-0.707,0.501-0.868c0.278-0.161,0.508-0.03,0.509,0.285l0.012,4.135c0.001,0.363-0.123,0.774-0.342,1.154
					L402.058,106.619z"/>
			</g>
		</g>
		<g style="opacity:0.4;">
			<g>
				<path style="fill:#FFFFFF;" d="M399.847,90.912c4.594-2.633,8.304-0.504,8.319,4.748c0.008,2.784-1.024,5.885-2.673,8.583
					c-0.903,1.478-1.481,3.108-1.664,4.61l-0.02,0.16c-0.081,0.678-0.308,1.407-0.656,2.11l-1.184,0.684l-0.011-3.901
					c-0.001-0.363,0.118-0.771,0.342-1.154l0.675-1.169c0.286-0.495,0.442-1.025,0.441-1.489l-0.012-4.135
					c-0.001-0.53-0.381-0.746-0.846-0.478c-0.461,0.266-0.838,0.919-0.837,1.449l0.011,3.767c0.001,0.32-0.223,0.712-0.501,0.873
					c-0.278,0.161-0.508,0.03-0.509-0.29l-0.011-3.767c-0.001-0.53-0.377-0.749-0.842-0.48c-0.465,0.269-0.838,0.919-0.837,1.449
					l0.011,3.767c0.001,0.32-0.227,0.715-0.505,0.875c-0.278,0.161-0.503,0.028-0.504-0.292l-0.011-3.767
					c-0.002-0.53-0.381-0.746-0.842-0.48c-0.465,0.269-0.838,0.919-0.837,1.449l0.012,4.135c0.001,0.463,0.156,0.814,0.444,0.978
					l0.68,0.387c0.225,0.124,0.346,0.393,0.348,0.756l0.011,3.901l-1.184,0.684c-0.35-0.3-0.581-0.765-0.666-1.347l-0.03-0.179
					c-0.191-1.291-0.81-2.206-1.714-2.65c-1.638-0.8-2.667-2.693-2.675-5.457C391.554,100.003,395.286,93.545,399.847,90.912z"/>
			</g>
			<g>
				<path style="fill:#FFFFFF;" d="M402.058,106.619c-0.282,0.488-0.438,1.018-0.437,1.481l0.011,3.901l-3.457,1.996l-0.011-3.901
					c-0.001-0.463-0.16-0.811-0.444-0.973l-0.684-0.39c-0.221-0.126-0.347-0.393-0.348-0.756l-0.012-4.135
					c-0.001-0.315,0.227-0.71,0.505-0.87c0.278-0.161,0.503-0.028,0.504,0.287l0.011,3.767c0.002,0.535,0.381,0.751,0.842,0.485
					c0.465-0.269,0.842-0.922,0.841-1.456l-0.011-3.767c-0.001-0.315,0.223-0.707,0.501-0.868c0.278-0.161,0.504-0.028,0.504,0.287
					l0.011,3.767c0.001,0.535,0.381,0.751,0.846,0.482c0.461-0.266,0.838-0.919,0.837-1.454l-0.011-3.767
					c-0.001-0.315,0.223-0.707,0.501-0.868c0.278-0.161,0.508-0.03,0.509,0.285l0.012,4.135c0.001,0.363-0.123,0.774-0.342,1.154
					L402.058,106.619z"/>
			</g>
		</g>
		<g>
			<polygon style="fill:#455A64;" points="403.152,111.123 403.156,112.259 402.682,112.533 397.13,115.738 396.657,116.012 
				396.654,114.875 			"/>
		</g>
		<g>
			<g>
				<path style="fill:#FFFFFF;" d="M388.5,99.293c0.037-0.022,0.075-0.032,0.109-0.028l3.031,0.259
					c0.108,0.009,0.146,0.145,0.084,0.305c-0.041,0.105-0.116,0.196-0.195,0.242l-0.112,0.031l-3.031-0.264
					c-0.104-0.012-0.142-0.148-0.08-0.303C388.348,99.428,388.424,99.338,388.5,99.293z"/>
			</g>
			<g>
				<path style="fill:#FFFFFF;" d="M404.698,107.059c0.078-0.045,0.154-0.042,0.196,0.017l1.755,2.468
					c0.063,0.088,0.026,0.267-0.078,0.399l-0.112,0.098c-0.079,0.046-0.154,0.041-0.196-0.016l-1.759-2.466
					c-0.059-0.091-0.026-0.267,0.082-0.401C404.621,107.114,404.659,107.081,404.698,107.059z"/>
			</g>
			<g>
				<path style="fill:#FFFFFF;" d="M412.969,92.705c0.125-0.072,0.225-0.015,0.225,0.128c0,0.143-0.099,0.316-0.224,0.387
					l-3.495,2.018c-0.12,0.069-0.225,0.015-0.225-0.128c0-0.143,0.103-0.318,0.224-0.387L412.969,92.705z"/>
			</g>
			<g>
				<path style="fill:#FFFFFF;" d="M411.191,86.193c0.077-0.044,0.152-0.041,0.194,0.018c0.063,0.083,0.03,0.26-0.078,0.394
					l-3.019,3.757l-0.112,0.098c-0.079,0.046-0.154,0.041-0.196-0.016c-0.063-0.088-0.026-0.267,0.082-0.401l3.019-3.752
					C411.116,86.247,411.154,86.215,411.191,86.193z"/>
			</g>
			<g>
				<path style="fill:#FFFFFF;" d="M391.563,110.595c0.077-0.044,0.151-0.042,0.192,0.016c0.063,0.088,0.026,0.267-0.082,0.401
					l-3.019,3.752l-0.112,0.103c-0.075,0.043-0.15,0.039-0.191-0.018c-0.063-0.088-0.026-0.267,0.078-0.399l3.019-3.752
					C391.484,110.652,391.524,110.618,391.563,110.595z"/>
			</g>
			<g>
				<path style="fill:#FFFFFF;" d="M406.382,83.45c0.038-0.022,0.077-0.034,0.113-0.03c0.104,0.012,0.142,0.148,0.08,0.303
					l-1.735,4.488c-0.041,0.105-0.116,0.196-0.195,0.242l-0.112,0.027c-0.108-0.009-0.142-0.148-0.084-0.301l1.74-4.491
					C406.229,83.584,406.305,83.495,406.382,83.45z"/>
			</g>
			<g>
				<path style="fill:#FFFFFF;" d="M390.26,105.816c0.12-0.07,0.225-0.015,0.225,0.128c0,0.143-0.103,0.318-0.224,0.387
					l-3.495,2.018c-0.125,0.072-0.225,0.015-0.225-0.128c0-0.143,0.099-0.315,0.224-0.387L390.26,105.816z"/>
			</g>
			<g>
				<path style="fill:#FFFFFF;" d="M399.824,85.215c0.125-0.072,0.225-0.015,0.225,0.128l0.011,4.016
					c0,0.143-0.099,0.315-0.224,0.387c-0.125,0.072-0.225,0.015-0.225-0.128l-0.011-4.016C399.6,85.459,399.7,85.286,399.824,85.215
					z"/>
			</g>
			<g>
				<path style="fill:#FFFFFF;" d="M393.278,91.016c0.077-0.045,0.153-0.043,0.195,0.013l1.759,2.471
					c0.058,0.086,0.026,0.263-0.082,0.397l-0.112,0.103c-0.079,0.046-0.154,0.041-0.196-0.016l-1.755-2.473
					c-0.063-0.083-0.026-0.263,0.078-0.394C393.201,91.072,393.239,91.038,393.278,91.016z"/>
			</g>
			<g>
				<path style="fill:#FFFFFF;" d="M408.202,100.988c0.039-0.023,0.079-0.034,0.116-0.031l3.031,0.259
					c0.108,0.009,0.142,0.148,0.08,0.308c-0.041,0.105-0.116,0.196-0.191,0.239l-0.112,0.027l-3.031-0.259
					c-0.108-0.009-0.146-0.145-0.084-0.305C408.052,101.12,408.126,101.032,408.202,100.988z"/>
			</g>
			<g>
				<path style="fill:#FFFFFF;" d="M395.09,112.606c0.038-0.022,0.077-0.033,0.112-0.03c0.108,0.009,0.142,0.148,0.084,0.305
					l-1.74,4.486c-0.041,0.105-0.116,0.196-0.195,0.242l-0.112,0.031c-0.104-0.012-0.142-0.148-0.08-0.308l1.735-4.484
					C394.937,112.741,395.013,112.651,395.09,112.606z"/>
			</g>
		</g>
	</g>
	<g>
		<polygon style="fill:#455A64;" points="288.616,151.273 295.535,148.932 289.351,160.232 281.206,170.152 		"/>
		<polygon style="fill:#37474F;" points="311.095,122.165 302.827,151.879 289.607,167.161 286.118,177.09 271.28,185.657 
			281.206,170.152 289.351,160.232 295.535,148.932 		"/>
		<g>
			<polygon style="fill:#BA68C8;" points="336.703,95.879 336.82,137.184 330.892,130.517 327.116,134.744 311.095,122.165 
				295.535,148.932 288.616,151.273 281.206,170.152 271.28,185.657 286.118,177.09 302.871,167.417 311.203,162.607 
				336.85,147.799 271.28,185.657 271.133,133.736 			"/>
			<polygon style="opacity:0.2;" points="336.703,95.879 336.82,137.184 330.892,130.517 327.116,134.744 311.095,122.165 
				295.535,148.932 288.616,151.273 281.206,170.152 271.28,185.657 286.118,177.09 302.871,167.417 311.203,162.607 
				336.85,147.799 271.28,185.657 271.133,133.736 			"/>
			<polygon style="fill:#455A64;" points="330.892,130.517 336.82,137.184 336.85,147.799 311.203,162.607 313.62,157.853 
				320.353,150.608 			"/>
			<polygon style="fill:#455A64;" points="311.095,122.165 327.116,134.744 312.539,151.063 302.871,167.417 286.118,177.09 
				289.607,167.161 302.827,151.879 			"/>
			<path style="fill:#BA68C8;" d="M265.438,130.491l76.922-44.411l0.184,64.964l-76.922,44.411L265.438,130.491z M336.82,137.184
				l-0.117-41.304l-65.57,37.857l0.147,51.92l65.57-37.857L336.82,137.184"/>
			<path style="opacity:0.6;fill:#FFFFFF;" d="M265.438,130.491l76.922-44.411l0.184,64.964l-76.922,44.411L265.438,130.491z
				 M336.82,137.184l-0.117-41.304l-65.57,37.857l0.147,51.92l65.57-37.857L336.82,137.184"/>
			<polygon style="fill:#37474F;" points="330.892,130.517 320.353,150.608 313.62,157.853 311.203,162.607 302.871,167.417 
				312.539,151.063 327.116,134.744 			"/>
		</g>
	</g>
	<g>
		<g>
			<polygon style="fill:#BA68C8;" points="143.37,159.852 143.457,190.865 104.293,213.477 104.205,182.464 			"/>
		</g>
		<g style="opacity:0.1;">
			<polygon points="143.37,159.852 143.457,190.865 104.293,213.477 104.205,182.464 			"/>
		</g>
		<g>
			<path style="fill:#BA68C8;" d="M100.804,180.526L146.748,154l0.11,38.803l-45.944,26.526L100.804,180.526z M143.457,190.865
				l-0.088-31.013l-39.164,22.612l0.088,31.013L143.457,190.865"/>
		</g>
		<g style="opacity:0.6;">
			<path style="fill:#FFFFFF;" d="M100.804,180.526L146.748,154l0.11,38.803l-45.944,26.526L100.804,180.526z M143.457,190.865
				l-0.088-31.013l-39.164,22.612l0.088,31.013L143.457,190.865"/>
		</g>
		<g>
			<g>
				<path style="fill:#37474F;" d="M136.673,168.766c0.702-0.405,1.272-0.08,1.274,0.73l0.051,18.013
					c0.002,0.806-0.564,1.787-1.266,2.192l-6.696,3.866c2.907-3.957,4.81-8.901,4.798-13.255c-0.012-4.353-1.94-7.087-4.863-7.677
					L136.673,168.766z"/>
			</g>
			<g>
				<path style="fill:#263238;" d="M123.809,178.023c4.152-2.397,7.53-0.472,7.544,4.299c0.014,4.771-3.342,10.584-7.495,12.982
					c-4.156,2.4-7.534,0.475-7.548-4.297C116.296,186.236,119.652,180.423,123.809,178.023z M121.5,186.975
					c1.285-0.742,2.326-2.546,2.322-4.022c-0.004-1.481-1.052-2.074-2.337-1.332c-1.289,0.744-2.33,2.543-2.326,4.024
					C119.163,187.122,120.212,187.719,121.5,186.975"/>
			</g>
			<g>
				<path style="fill:#37474F;" d="M117.633,179.759c-2.911,3.958-4.816,8.905-4.804,13.258c0.012,4.354,1.938,7.088,4.858,7.68
					l-6.693,3.864c-0.702,0.405-1.275,0.082-1.278-0.724l-0.051-18.013c-0.002-0.811,0.568-1.794,1.269-2.199L117.633,179.759z"/>
			</g>
			<g>
				<path style="fill:#FFFFFF;" d="M121.485,181.621c1.285-0.742,2.333-0.149,2.337,1.332c0.004,1.477-1.037,3.28-2.322,4.022
					c-1.289,0.744-2.337,0.147-2.341-1.33C119.155,184.164,120.196,182.365,121.485,181.621z"/>
			</g>
			<g>
				<path style="fill:#455A64;" d="M129.971,172.635c2.923,0.59,4.85,3.324,4.863,7.677c0.012,4.354-1.891,9.298-4.798,13.255
					c-1.756,2.391-3.879,4.421-6.167,5.742c-2.289,1.322-4.417,1.746-6.182,1.388c-2.921-0.592-4.846-3.326-4.858-7.68
					c-0.012-4.353,1.893-9.3,4.804-13.258c1.756-2.388,3.878-4.415,6.165-5.736C126.083,172.704,128.208,172.279,129.971,172.635z
					 M123.858,195.304c4.152-2.397,7.508-8.21,7.495-12.982c-0.014-4.771-3.391-6.696-7.544-4.299
					c-4.156,2.4-7.512,8.212-7.499,12.984C116.323,195.779,119.701,197.704,123.858,195.304"/>
			</g>
		</g>
	</g>
	<g>
		<g>
			<path style="fill:#BA68C8;" d="M323.383,65.874l49.384-28.512l0.144,50.739l-49.384,28.512L323.383,65.874z M368.239,85.44
				l-0.113-40.039l-40.072,23.135l0.113,40.039L368.239,85.44"/>
			<path style="opacity:0.6;fill:#FFFFFF;" d="M323.383,65.874l49.384-28.512l0.144,50.739l-49.384,28.512L323.383,65.874z
				 M368.239,85.44l-0.113-40.039l-40.072,23.135l0.113,40.039L368.239,85.44"/>
			<polygon style="fill:#BA68C8;" points="368.126,45.401 328.054,68.536 328.168,108.575 368.239,85.44 			"/>
		</g>
		<g>
			<g style="enable-background:new    ;">
				<g>
					<path style="fill:#FFFFFF;" d="M355.028,73.748c0.927-0.336,1.949-0.487,2.953-0.401c0.267,0.023,0.506,0.061,0.719,0.112
						c1.907,0.46,1.711,2.008,1.003,3.836c-0.485,1.258-1.101,2.352-2.134,2.948c-0.465,0.269-1.015,0.436-1.675,0.472
						c-0.24,0.013-0.493,0.009-0.763-0.014c-1-0.088-1.84-0.401-2.457-0.867c0.146-0.233,0.29-0.468,0.43-0.709
						c0.422-0.728,0.8-1.499,1.112-2.304c0.312-0.803,0.536-1.585,0.687-2.338C354.952,74.235,354.993,73.989,355.028,73.748z"/>
				</g>
				<g>
					<path style="fill:#E0E0E0;" d="M351.635,78.415c0.17,0.548,0.527,1.035,1.036,1.417c0.149-0.231,0.293-0.466,0.433-0.707
						c-0.139,0.24-0.284,0.476-0.433,0.707c-0.306,0.484-0.643,0.956-1.008,1.41c-0.363,0.453-0.739,0.867-1.123,1.245
						c-0.154,0.148-0.309,0.295-0.465,0.438c0.157-0.143,0.311-0.29,0.464-0.442c-0.258-0.694-0.603-1.194-1.006-1.451
						C350.335,80.305,351.054,79.401,351.635,78.415z"/>
				</g>
				<g>
					<path style="fill:#F0F0F0;" d="M353.899,74.27c0.353-0.204,0.732-0.379,1.129-0.522c-0.034,0.242-0.076,0.487-0.126,0.735
						c-0.151,0.753-0.375,1.535-0.687,2.338c-0.312,0.806-0.689,1.576-1.112,2.304c-0.139,0.24-0.284,0.476-0.433,0.707
						c-0.509-0.382-0.866-0.868-1.036-1.417c0.655-1.111,1.135-2.328,1.362-3.513C353.27,74.67,353.573,74.458,353.899,74.27z"/>
				</g>
				<g>
					<path style="fill:#F0F0F0;" d="M358.686,66.965c2.322-1.082,2.779,0.01,2.783,1.644c0.005,1.635-0.445,3.252-2.769,4.85
						c-0.213-0.051-0.452-0.089-0.719-0.112c-1.004-0.086-2.026,0.065-2.95,0.4c0.072-0.502,0.109-0.998,0.108-1.483
						c-0.001-0.484-0.041-0.934-0.115-1.35c0.923-0.736,1.942-1.763,2.942-3.002C358.233,67.579,358.473,67.263,358.686,66.965z"/>
				</g>
				<g>
					<path style="fill:#FFFFFF;" d="M350.538,82.483c0.316,0.844,0.499,1.974,0.503,3.303c0.001,0.354-0.011,0.687-0.035,1
						c-0.215,2.802-1.392,4.001-2.816,4.823c-1.424,0.822-2.604,0.984-2.834-1.561c-0.026-0.284-0.039-0.602-0.04-0.956
						c-0.004-1.329,0.172-2.666,0.481-3.866c0.154-0.03,0.309-0.061,0.467-0.1c0.606-0.148,1.244-0.404,1.906-0.787
						c0.663-0.382,1.3-0.863,1.905-1.414C350.231,82.782,350.386,82.635,350.538,82.483z"/>
				</g>
				<g>
					<path style="fill:#E0E0E0;" d="M355.02,70.917c0.078,0.413,0.118,0.863,0.119,1.347c0.001,0.485-0.036,0.981-0.108,1.483
						c-0.037,0.243-0.079,0.488-0.129,0.736c0.05-0.248,0.091-0.494,0.126-0.735c-0.397,0.143-0.776,0.318-1.129,0.522
						c-0.326,0.188-0.629,0.4-0.902,0.632c0.096-0.504,0.147-1.003,0.146-1.486c-0.001-0.482-0.055-0.921-0.154-1.312
						c0.276-0.084,0.581-0.223,0.909-0.412C354.249,71.489,354.626,71.229,355.02,70.917z"/>
				</g>
				<g>
					<path style="fill:#F0F0F0;" d="M349.532,81.032c0.403,0.257,0.748,0.757,1.006,1.451c-0.152,0.152-0.307,0.299-0.464,0.442
						c-0.605,0.551-1.242,1.031-1.905,1.414c-0.663,0.382-1.3,0.639-1.906,0.787c-0.157,0.038-0.312,0.07-0.465,0.094
						c0.253-0.989,0.594-1.885,0.995-2.606c0.436-0.109,0.895-0.298,1.37-0.572S349.097,81.425,349.532,81.032z"/>
				</g>
				<g>
					<path style="fill:#FFFFFF;" d="M341.271,81.691c0.039,0.199,0.082,0.395,0.133,0.585c0.154,0.576,0.383,1.098,0.698,1.538
						c0.315,0.443,0.696,0.777,1.121,1.015c0.14,0.079,0.286,0.147,0.435,0.206c-0.615,1.181-1.45,2.461-2.446,3.702
						c-0.269,0.334-0.522,0.631-0.761,0.894c-0.658,0.726-1.207,1.193-1.672,1.461c-1.033,0.596-1.653,0.215-2.144-0.479
						c-0.716-1.006-0.919-2.324,0.978-4.98c0.212-0.297,0.45-0.61,0.716-0.941C339.329,83.45,340.348,82.423,341.271,81.691z"/>
				</g>
				<g>
					<path style="fill:#F0F0F0;" d="M343.655,85.04c0.311,0.125,0.649,0.207,1.016,0.238c0.365,0.032,0.742,0.012,1.126-0.053
						c-0.309,1.2-0.485,2.537-0.481,3.866c0.001,0.354,0.015,0.672,0.04,0.956c-0.783,1.723-1.532,2.612-2.264,3.034
						c-0.53,0.306-1.05,0.367-1.569,0.322c-1.234-0.106-2.033-0.775-1.073-3.773c0.239-0.263,0.492-0.56,0.761-0.894
						C342.208,87.496,343.043,86.217,343.655,85.04z"/>
				</g>
				<g>
					<path style="fill:#E0E0E0;" d="M344.682,82.429c0.585,0.313,1.307,0.385,2.111,0.184c-0.4,0.721-0.742,1.617-0.995,2.606
						c0.153-0.024,0.308-0.056,0.465-0.094c-0.157,0.038-0.312,0.07-0.465,0.094c-0.385,0.071-0.763,0.091-1.128,0.059
						c-0.367-0.031-0.705-0.113-1.016-0.238c-0.147-0.063-0.292-0.132-0.433-0.211c0.14,0.079,0.286,0.147,0.435,0.206
						C344.163,84.068,344.516,83.172,344.682,82.429z"/>
				</g>
				<g>
					<path style="fill:#F0F0F0;" d="M352.636,67.566c0.602,0.236,1.137,0.631,1.556,1.221c0.42,0.59,0.685,1.319,0.827,2.13
						c-0.394,0.312-0.77,0.573-1.121,0.775c-0.328,0.189-0.634,0.328-0.909,0.412c-0.233-0.92-0.717-1.579-1.376-1.932
						C351.779,69.43,352.132,68.534,352.636,67.566z"/>
				</g>
				<g>
					<path style="fill:#FFFFFF;" d="M357.516,61.509c1.033-0.596,1.653-0.215,2.144,0.479c0.715,1.005,0.919,2.325-0.974,4.978
						c-0.213,0.298-0.452,0.614-0.72,0.947c-1,1.239-2.019,2.266-2.942,3.002c-0.147-0.809-0.412-1.537-0.831-2.127
						c-0.42-0.59-0.954-0.985-1.556-1.221c0.615-1.181,1.45-2.461,2.447-3.702c0.269-0.334,0.522-0.631,0.761-0.894
						C356.502,62.244,357.051,61.777,357.516,61.509z"/>
				</g>
				<g>
					<path style="fill:#E0E0E0;" d="M350.496,67.382c0.385-0.071,0.763-0.091,1.127-0.059c0.367,0.031,0.705,0.113,1.015,0.239
						c-0.507,0.973-0.859,1.869-1.026,2.611c-0.585-0.313-1.307-0.385-2.112-0.184C349.901,69.267,350.242,68.371,350.496,67.382z"
						/>
				</g>
				<g>
					<path style="fill:#F0F0F0;" d="M342.402,80.907c0.326-0.188,0.629-0.326,0.902-0.409c0.233,0.92,0.718,1.579,1.377,1.932
						c-0.166,0.743-0.519,1.639-1.024,2.606c-0.149-0.059-0.295-0.127-0.435-0.206c-0.425-0.239-0.806-0.572-1.121-1.015
						c-0.315-0.44-0.544-0.962-0.698-1.538c-0.051-0.19-0.094-0.386-0.129-0.588C341.671,81.373,342.05,81.111,342.402,80.907z"/>
				</g>
				<g>
					<path style="fill:#BA68C8;" d="M348.131,70.56c0.475-0.274,0.935-0.463,1.37-0.572c0.804-0.201,1.526-0.129,2.112,0.184
						c0.659,0.353,1.144,1.012,1.376,1.932c0.099,0.391,0.152,0.83,0.154,1.312c0.001,0.483-0.049,0.981-0.146,1.486
						c-0.227,1.185-0.707,2.401-1.362,3.513c-0.581,0.987-1.301,1.89-2.103,2.617c-0.435,0.394-0.894,0.735-1.369,1.009
						s-0.935,0.463-1.37,0.572c-0.804,0.201-1.526,0.129-2.111-0.184c-0.659-0.353-1.144-1.011-1.377-1.932
						c-0.099-0.392-0.152-0.83-0.154-1.313c-0.001-0.482,0.049-0.981,0.146-1.485c0.227-1.185,0.706-2.401,1.361-3.512
						c0.581-0.987,1.301-1.891,2.104-2.618C347.196,71.176,347.656,70.834,348.131,70.56z"/>
				</g>
				<g style="opacity:0.5;">
					<path style="fill:#FFFFFF;" d="M348.131,70.56c0.475-0.274,0.935-0.463,1.37-0.572c0.804-0.201,1.526-0.129,2.112,0.184
						c0.659,0.353,1.144,1.012,1.376,1.932c0.099,0.391,0.152,0.83,0.154,1.312c0.001,0.483-0.049,0.981-0.146,1.486
						c-0.227,1.185-0.707,2.401-1.362,3.513c-0.581,0.987-1.301,1.89-2.103,2.617c-0.435,0.394-0.894,0.735-1.369,1.009
						s-0.935,0.463-1.37,0.572c-0.804,0.201-1.526,0.129-2.111-0.184c-0.659-0.353-1.144-1.011-1.377-1.932
						c-0.099-0.392-0.152-0.83-0.154-1.313c-0.001-0.482,0.049-0.981,0.146-1.485c0.227-1.185,0.706-2.401,1.361-3.512
						c0.581-0.987,1.301-1.891,2.104-2.618C347.196,71.176,347.656,70.834,348.131,70.56z"/>
				</g>
				<g>
					<path style="fill:#FFFFFF;" d="M338.725,72.358c0.465-0.268,1.015-0.436,1.675-0.472c0.24-0.013,0.493-0.009,0.763,0.014
						c1,0.088,1.84,0.401,2.457,0.868c-0.597,0.931-1.127,1.941-1.542,3.013c-0.415,1.071-0.675,2.103-0.813,3.077
						c-0.928,0.332-1.949,0.483-2.953,0.401c-0.269-0.023-0.51-0.062-0.723-0.114c-1.902-0.462-1.706-2.013-0.999-3.839
						C337.076,74.048,337.692,72.954,338.725,72.358z"/>
				</g>
				<g>
					<path style="fill:#E0E0E0;" d="M341.262,78.859c0.398-0.144,0.775-0.319,1.126-0.521c0.328-0.19,0.634-0.404,0.909-0.638
						c-0.096,0.504-0.147,1.003-0.146,1.485c0.001,0.483,0.055,0.921,0.154,1.313c-0.274,0.083-0.577,0.221-0.902,0.409
						c-0.353,0.204-0.732,0.466-1.128,0.782c0.035,0.201,0.078,0.398,0.129,0.588c-0.051-0.19-0.094-0.386-0.129-0.588
						c-0.078-0.415-0.118-0.866-0.119-1.351C341.154,79.854,341.191,79.359,341.262,78.859z"/>
				</g>
				<g>
					<path style="fill:#F0F0F0;" d="M353.2,59.523c0.53-0.306,1.052-0.367,1.571-0.322c1.234,0.102,2.032,0.771,1.073,3.769
						c-0.239,0.263-0.492,0.56-0.761,0.894c-0.997,1.241-1.832,2.521-2.444,3.697c-0.311-0.125-0.649-0.207-1.015-0.239
						c-0.365-0.032-0.742-0.012-1.126,0.053c0.309-1.2,0.485-2.537,0.481-3.862c-0.001-0.355-0.015-0.673-0.041-0.957
						C351.72,60.834,352.468,59.945,353.2,59.523z"/>
				</g>
				<g>
					<path style="fill:#F0F0F0;" d="M348.124,68.266c0.834-0.482,1.63-0.763,2.372-0.885c-0.253,0.989-0.594,1.885-0.995,2.606
						c-0.436,0.109-0.895,0.298-1.37,0.572c-0.475,0.274-0.934,0.616-1.369,1.009c-0.403-0.257-0.748-0.757-1.006-1.451
						C346.495,69.385,347.29,68.748,348.124,68.266z"/>
				</g>
				<g>
					<path style="fill:#E0E0E0;" d="M345.754,70.114c0.259,0.698,0.605,1.198,1.008,1.455c-0.803,0.726-1.522,1.631-2.104,2.618
						c-0.17-0.548-0.527-1.034-1.035-1.418c0.306-0.485,0.643-0.956,1.008-1.41C344.994,70.907,345.371,70.492,345.754,70.114z"/>
				</g>
				<g>
					<path style="fill:#FFFFFF;" d="M348.103,60.993c1.423-0.822,2.604-0.981,2.834,1.564c0.026,0.284,0.04,0.602,0.041,0.957
						c0.004,1.325-0.172,2.662-0.481,3.862c-0.743,0.128-1.539,0.409-2.373,0.891c-0.835,0.482-1.629,1.118-2.369,1.852
						c-0.316-0.844-0.499-1.974-0.503-3.299c-0.001-0.355,0.011-0.688,0.035-1.001C345.502,63.017,346.68,61.814,348.103,60.993z"/>
				</g>
				<g>
					<path style="fill:#F0F0F0;" d="M343.016,65.403c0.731-0.422,1.482-0.399,2.272,0.416c-0.024,0.313-0.036,0.646-0.035,1.001
						c0.004,1.325,0.187,2.455,0.501,3.295c-0.383,0.378-0.759,0.792-1.123,1.245c-0.365,0.454-0.702,0.925-1.011,1.408
						c-0.617-0.466-1.457-0.78-2.457-0.868c-0.27-0.023-0.524-0.027-0.763-0.014c-0.973-1.882-0.181-3.469,1.048-4.993
						C341.965,66.249,342.485,65.709,343.016,65.403z"/>
				</g>
			</g>
			<g>
				<path style="fill:#F0F0F0;" d="M343.623,72.769c0.508,0.384,0.865,0.87,1.035,1.418c-0.655,1.111-1.135,2.327-1.361,3.512
					c-0.275,0.234-0.581,0.448-0.909,0.638c-0.351,0.202-0.728,0.377-1.122,0.52c0.138-0.974,0.398-2.006,0.813-3.077
					C342.494,74.709,343.024,73.699,343.623,72.769z"/>
			</g>
			<g>
				<path style="fill:#F0F0F0;" d="M337.59,79.145c0.214,0.052,0.454,0.09,0.723,0.114c1.004,0.082,2.025-0.069,2.949-0.4
					c-0.071,0.5-0.109,0.995-0.107,1.479c0.001,0.485,0.042,0.936,0.116,1.354c-0.923,0.732-1.942,1.759-2.942,3.002
					c-0.266,0.331-0.504,0.644-0.716,0.941c-2.325,1.085-2.783-0.007-2.788-1.642C334.82,82.358,335.27,80.743,337.59,79.145z"/>
			</g>
			<g>
				<path style="fill:#F0F0F0;" d="M352.673,79.834c0.617,0.466,1.456,0.779,2.457,0.867c0.27,0.023,0.524,0.027,0.763,0.014
					c0.973,1.882,0.181,3.469-1.048,4.998c-0.517,0.642-1.036,1.182-1.566,1.487c-0.732,0.423-1.483,0.399-2.273-0.415
					c0.024-0.313,0.036-0.645,0.035-1c-0.004-1.329-0.186-2.459-0.501-3.299c0.383-0.378,0.759-0.792,1.123-1.245
					C352.028,80.788,352.365,80.316,352.673,79.834z"/>
			</g>
		</g>
	</g>
</g>
</svg>
